<?xml version="1.0" encoding="UTF-8" standalone="no"?>
<svg width="63px" height="63px" viewBox="-1 -1 62 62" version="1.1" xmlns="http://www.w3.org/2000/svg" xmlns:xlink="http://www.w3.org/1999/xlink">
<g stroke="none" stroke-width="1" fill="none" fill-rule="evenodd">
<g transform="translate(-593.000000, -2346.000000)">
<g transform="translate(0.000000, 2165.000000)">
<g transform="translate(593.000000, 181.000000)">
<circle stroke="#BDC3C7" cx="30" cy="30" r="30"></circle>
<circle stroke="#1ABC9C" stroke-width="0.5" cx="30" cy="30" r="27"></circle>
<g transform="translate(17.142857, 19.428571)">
<g transform="translate(0.620690, 0.443350)" stroke="#66655D">
<path d="M22.4239212,16.9950857 L24.5540217,17.3912276 L24.5540217,1.27720197 L18.0505064,0.192094581 L11.7735251,3.06021281 L6.48056749,0.642183251 L0.176772414,3.01467192 L0.176772414,19.1288039 L6.48056749,16.7559961 L11.5301793,19.0154837"></path>
<path d="M5,3.74077241 L5,13.966936"></path>
<path d="M10,5.72031133 L10,9.6210798"></path>
<path d="M17,3.01467192 L17,8.18303054"></path>
<path d="M21.0275823,15.2360158 C21.0275823,17.6854345 16.5676611,24.4251665 16.5676611,24.4251665 C16.5676611,24.4251665 12.1077399,17.6854345 12.1077399,15.2360158 C12.1077399,12.786597 14.1045163,10.8008867 16.5676611,10.8008867 C19.0308059,10.8008867 21.0275823,12.7864906 21.0275823,15.2360158 L21.0275823,15.2360158 Z"></path>
<ellipse cx="16.5675547" cy="14.9145695" rx="1.10308966" ry="1.09681182"></ellipse>
</g>
<rect x="0.162868966" y="0.000106403941" width="25.5369458" height="25.5369458"></rect>
</g>
</g>
</g>
</g>
</g>
</svg>