<?xml version="1.0" encoding="UTF-8" standalone="no"?>
<svg width="51px" height="72px" viewBox="0 0 51 72" version="1.1" xmlns="http://www.w3.org/2000/svg" xmlns:xlink="http://www.w3.org/1999/xlink" xmlns:sketch="http://www.bohemiancoding.com/sketch/ns">
    <!-- Generator: Sketch 3.3.3 (12081) - http://www.bohemiancoding.com/sketch -->
    <title>logo-css3</title>
    <desc>Created with Sketch.</desc>
    <defs></defs>
    <g id="ZFC-V2" stroke="none" stroke-width="1" fill="none" fill-rule="evenodd" sketch:type="MSPage">
        <g sketch:type="MSArtboardGroup" transform="translate(-325.000000, -1005.000000)" id="What">
            <g sketch:type="MSLayerGroup" transform="translate(-106.000000, 625.000000)">
                <g id="Group-Copy-+-Easy-to-use-HTML,-CS-+-Type-something" transform="translate(363.000000, 202.000000)" sketch:type="MSShapeGroup">
                    <g id="Group-Copy" transform="translate(0.000000, 175.000000)">
                        <g id="logo-css3" transform="translate(68.000000, 3.000000)">
                            <g id="Page-1">
                                <g id="Layer_1">
                                    <path d="M39.903906,2.68366107 L35.6787785,2.68366107 L40.072651,7.45147651 L40.072651,9.72097651 L31.0223758,9.72097651 L31.0223758,7.06384228 L35.4153926,7.06384228 L31.0223758,2.2958557 L31.0223758,0.0231040268 L39.903906,0.0231040268 L39.903906,2.68366107 L39.903906,2.68366107 Z M29.2284765,2.68366107 L25.003349,2.68366107 L29.3970503,7.45147651 L29.3970503,9.72097651 L20.3467752,9.72097651 L20.3467752,7.06384228 L24.7403054,7.06384228 L20.3467752,2.2958557 L20.3467752,0.0231040268 L29.2284765,0.0231040268 L29.2284765,2.68366107 L29.2284765,2.68366107 Z M18.657443,2.79165101 L14.0982483,2.79165101 L14.0982483,6.95260067 L18.657443,6.95260067 L18.657443,9.72097651 L10.8578658,9.72097651 L10.8578658,0.0231040268 L18.657443,0.0231040268 L18.657443,2.79165101 L18.657443,2.79165101 Z" id="Shape" fill="#131313"></path>
                                    <path d="M4.64510738,66.1100336 L0.0121510067,14.1482215 L50.9180235,14.1482215 L46.2807886,66.1016477 L25.4339396,71.8810772 L4.64510738,66.1100336 L4.64510738,66.1100336 Z" id="Shape" fill="#1572B6"></path>
                                    <path d="M25.4654295,67.4635872 L42.3103188,62.7934933 L46.2734295,18.3969664 L25.4654295,18.3969664 L25.4654295,67.4635872 L25.4654295,67.4635872 Z" id="Shape" fill="#33A9DC"></path>
                                    <g id="Group" transform="translate(9.412752, 24.302013)">
                                        <path d="M16.0525067,12.9204564 L24.4854765,12.9204564 L25.0678691,6.39451007 L16.0525067,6.39451007 L16.0525067,0.0213926174 L16.0745839,0.0213926174 L32.0327919,0.0213926174 L31.8799631,1.73126174 L30.3136812,19.2930604 L16.0525067,19.2930604 L16.0525067,12.9204564 L16.0525067,12.9204564 Z" id="Shape" fill="#FFFFFF"></path>
                                        <path d="M16.0906711,29.4711544 L16.0627752,29.4790268 L8.96521812,27.5624195 L8.51135235,22.4798758 L5.06269128,22.4798758 L2.11427517,22.4798758 L3.00694631,32.4859732 L16.0612349,36.1100537 L16.0906711,36.1018389 L16.0906711,29.4711544 L16.0906711,29.4711544 Z" id="Shape" fill="#EBEBEB"></path>
                                        <path d="M23.9438154,19.0233423 L23.1764195,27.5581409 L16.068594,29.4766309 L16.068594,36.1069732 L29.1333221,32.4859732 L29.2291611,31.4094966 L30.3378121,19.0233423 L23.9438154,19.0233423 L23.9438154,19.0233423 Z" id="Shape" fill="#FFFFFF"></path>
                                        <path d="M16.0745839,0.0213926174 L16.0745839,3.97954027 L16.0745839,6.3787651 L16.0745839,6.39451007 L0.70133557,6.39451007 L0.680969799,6.39451007 L0.553127517,4.9620604 L0.262701342,1.73126174 L0.110385906,0.0213926174 L16.0745839,0.0213926174 L16.0745839,0.0213926174 Z" id="Shape" fill="#EBEBEB"></path>
                                        <path d="M16.0525067,12.9211409 L16.0525067,16.8794597 L16.0525067,19.2783423 L16.0525067,19.2940872 L9.06516443,19.2940872 L9.04479866,19.2940872 L8.91712752,17.8618087 L8.6265302,14.6310101 L8.47421477,12.9211409 L16.0525067,12.9211409 L16.0525067,12.9211409 Z" id="Shape" fill="#EBEBEB"></path>
                                    </g>
                                </g>
                            </g>
                        </g>
                    </g>
                </g>
            </g>
        </g>
    </g>
</svg>