<?xml version="1.0" encoding="UTF-8" standalone="no"?>
<svg width="186px" height="35px" viewBox="0 0 186 35" version="1.1" xmlns="http://www.w3.org/2000/svg" xmlns:xlink="http://www.w3.org/1999/xlink" xmlns:sketch="http://www.bohemiancoding.com/sketch/ns">
    <!-- Generator: Sketch 3.3.3 (12081) - http://www.bohemiancoding.com/sketch -->
    <title>logo-codekit</title>
    <desc>Created with Sketch.</desc>
    <defs></defs>
    <g id="ZFC-V2" stroke="none" stroke-width="1" fill="none" fill-rule="evenodd" sketch:type="MSPage">
        <g sketch:type="MSArtboardGroup" transform="translate(-530.000000, -1023.000000)" id="What">
            <g sketch:type="MSLayerGroup" transform="translate(-106.000000, 625.000000)">
                <g id="Group-Copy-+-Easy-to-use-HTML,-CS-+-Type-something" transform="translate(363.000000, 202.000000)" sketch:type="MSShapeGroup">
                    <g id="Group-Copy" transform="translate(0.000000, 175.000000)">
                        <g id="logo-codekit" transform="translate(273.000000, 21.000000)">
                            <path d="M18.5299601,0.235789474 C19.6014314,1.28026316 20.7030524,2.29618421 21.7350973,3.3775 C22.8793915,4.57625 22.8455312,5.11644737 21.6724788,6.25901316 C18.0378254,9.79815789 14.4105935,13.3451316 10.7481097,16.8557237 C10.1627431,17.4166447 10.0838903,17.7141447 10.721207,18.3225 C14.3646733,21.8008553 17.9589726,25.3303289 21.5681147,28.8441447 C22.9591721,30.1990132 22.953606,30.6038158 21.5379651,31.9867763 C20.7656708,32.7411184 19.9998703,33.5019079 19.2169077,34.2447368 C18.2971122,35.1169737 17.6713915,35.1519737 16.7910224,34.2976974 C11.4206783,29.0859211 6.05961097,23.8640132 0.706428928,18.6342763 C-0.206872818,17.7417763 -0.155386534,17.2066447 0.886862843,16.1953289 C6.30962095,10.9347368 11.738409,5.68059211 17.1620948,0.420921053 C17.2047681,0.379473684 17.2075511,0.298421053 17.2288878,0.235789474 L18.5299601,0.235789474" id="Fill-1" fill="#EFA937"></path>
                            <path d="M168.379631,0.235789474 C173.948499,5.64881579 179.521077,11.0581579 185.082524,16.4790132 C185.966603,17.3406579 185.97588,17.9084868 185.098758,18.7636842 C179.765521,23.9644079 174.418369,29.1517763 169.076319,34.34375 C168.368035,35.0317763 167.649082,35.0810526 166.870294,34.4376974 C165.840569,33.5871053 164.880883,32.6665132 163.995411,31.6703947 C162.973571,30.52 162.987022,30.0078947 164.075192,28.9473026 C167.760868,25.3551974 171.44005,21.7571053 175.15402,18.1944737 C175.69996,17.6708553 175.703207,17.4078947 175.156803,16.8838158 C171.468344,13.3465132 167.814209,9.77375 164.152653,6.20881579 C162.890544,4.98059211 162.885905,4.50118421 164.121112,3.29736842 C165.174494,2.27177632 166.237152,1.25585526 167.295172,0.235789474 L168.379631,0.235789474" id="Fill-2" fill="#EFA937"></path>
                            <path d="M68.4447531,17.4101974 C68.4447531,13.8609211 68.4628429,10.3116447 68.4299102,6.76282895 C68.4234165,6.03289474 68.6075611,5.76578947 69.3882045,5.77546053 C72.7097656,5.81690789 76.0317905,5.79986842 79.3538155,5.79802632 C80.4410574,5.79756579 81.5153117,5.92098684 82.5779701,6.13144737 C86.6982643,6.94796053 89.0995661,9.44493421 89.8087781,13.5334868 C90.297202,16.3519079 90.27401,19.1763158 89.5699002,21.9592763 C88.437202,26.4328289 85.394409,28.8639474 80.4549726,29.0486184 C76.7048229,29.1890789 72.9453965,29.0799342 69.1906085,29.1232237 C68.4011521,29.1324342 68.4396509,28.6976974 68.4410424,28.1653289 C68.4489277,24.5801316 68.4447531,20.9953947 68.4447531,17.4101974 L68.4447531,17.4101974 Z M76.8523242,17.3756579 C76.8523242,18.8424342 76.8430474,20.3096711 76.8602095,21.7764474 C76.8634564,22.0628947 76.7117805,22.4179605 77.1612419,22.5878947 C78.689596,23.1663158 81.0403392,22.0338816 81.444808,20.4427632 C81.927202,18.5421711 81.8423192,16.6047368 81.5296908,14.6944737 C81.261591,13.0526974 80.503212,12.4540132 78.8236459,12.3190789 C78.4293815,12.2877632 78.0281596,12.3342763 77.6357506,12.2932895 C77.0174514,12.2288158 76.8249576,12.4765789 76.8402643,13.0821711 C76.8773716,14.5121053 76.8523242,15.9443421 76.8523242,17.3756579 L76.8523242,17.3756579 Z" id="Fill-3" fill="#958570"></path>
                            <path d="M66.7308628,17.4714474 C66.7582294,19.2361842 66.596813,20.9746711 66.1390025,22.6892105 C65.1890574,26.2463158 62.8466633,28.3177632 59.2755561,29.0670395 C56.6636708,29.6150658 54.0332319,29.6159868 51.4273766,29.0495395 C47.9119302,28.2850658 45.5635062,26.2209868 44.6390723,22.715 C43.7647332,19.3982895 43.7526733,16.0502632 44.4781197,12.7063816 C45.3195262,8.82782895 47.7110873,6.48236842 51.6463092,5.73125 C54.3764738,5.20993421 57.1103491,5.22006579 59.8122195,5.88782895 C63.8114514,6.87519737 65.7748878,9.64342105 66.4581247,13.5076974 C66.6905087,14.8225 66.7220499,16.1451316 66.7308628,17.4714474 L66.7308628,17.4714474 Z M52.3592319,17.4240132 C52.3341845,18.6471711 52.3865985,19.8638816 52.7400449,21.0455921 C53.1510075,22.4184211 53.852798,22.9015132 55.3908928,22.9010526 C56.9493965,22.9005921 57.6859751,22.4386842 58.0268978,21.0488158 C58.6257157,18.6084868 58.5997406,16.1419079 58.0278254,13.7015789 C57.7235461,12.4051974 56.9113616,11.8917105 55.4632519,11.8778947 C54.0044738,11.8640789 53.1830125,12.3688158 52.7882843,13.5951974 C52.3884539,14.8386184 52.3332569,16.1294737 52.3592319,17.4240132 L52.3592319,17.4240132 Z" id="Fill-4" fill="#958570"></path>
                            <path d="M111.281342,17.3848684 C111.281342,13.8715132 111.3101,10.3572368 111.260933,6.84434211 C111.248873,5.97717105 111.521147,5.75197368 112.36209,5.77361842 C114.491117,5.82842105 116.622928,5.81414474 118.752883,5.77914474 C119.412464,5.76809211 119.624903,5.96703947 119.614234,6.62973684 C119.577591,8.85177632 119.595217,11.0751974 119.605421,13.2981579 C119.607277,13.6914474 119.437047,14.1966447 120.163421,14.2095395 C120.718638,14.2196711 121.100843,14.1565789 121.292409,13.51875 C121.983531,11.2216447 122.762783,8.95032895 123.439526,6.64907895 C123.641761,5.96013158 123.969232,5.76440789 124.655252,5.77776316 C126.676668,5.81736842 128.69994,5.82703947 130.720893,5.77638158 C131.655531,5.75289474 131.924559,5.93203947 131.576214,6.90927632 C130.481551,9.97868421 129.490324,13.0844737 128.427202,16.1653947 C128.216155,16.7769737 128.210589,17.3176316 128.427666,17.9305921 C129.610923,21.2735526 130.740838,24.6349342 131.931516,27.9751316 C132.226983,28.8045395 132.233476,29.1720395 131.155047,29.1324342 C129.063591,29.0550658 126.966105,29.0813158 124.872793,29.1255263 C124.174713,29.1407237 123.875536,28.9049342 123.649646,28.2509868 C122.936723,26.1864474 122.097636,24.1642763 121.40002,22.0946711 C121.152329,21.3596711 120.726524,21.2878289 120.10405,21.3343421 C119.28398,21.3960526 119.623047,22.015 119.61609,22.3930921 C119.582229,24.3286842 119.575272,26.2651974 119.614234,28.2007895 C119.627686,28.8786842 119.459312,29.1416447 118.721805,29.1259868 C116.556135,29.0799342 114.388145,29.0776316 112.222474,29.1264474 C111.440903,29.1439474 111.260005,28.8685526 111.266963,28.1404605 C111.299431,24.5557237 111.281342,20.9700658 111.281342,17.3848684" id="Fill-5" fill="#958570"></path>
                            <path d="M91.6247132,17.3913158 C91.6247132,13.8392763 91.6460499,10.2863158 91.608015,6.73473684 C91.5996658,5.97072368 91.8422544,5.77315789 92.5885736,5.77684211 C97.9732968,5.80539474 103.35802,5.79894737 108.743207,5.78236842 C109.348055,5.78098684 109.669032,5.87585526 109.64816,6.59105263 C109.600848,8.24065789 109.606878,9.89256579 109.646304,11.5421711 C109.662075,12.1855263 109.40186,12.3153947 108.820204,12.3098684 C106.254239,12.2859211 103.688274,12.3130921 101.122309,12.2909868 C100.441392,12.285 100.004454,12.2836184 99.9919302,13.2166447 C99.9794065,14.2017105 100.445102,14.2228947 101.175187,14.2104605 C102.945666,14.1805263 104.717536,14.2275 106.487551,14.1874342 C107.170788,14.1717763 107.455586,14.3366447 107.429611,15.0757895 C107.376733,16.5807895 107.38601,18.0899342 107.4259,19.5958553 C107.443526,20.2728289 107.177746,20.4584211 106.536254,20.4482895 C104.657701,20.4183553 102.7759,20.4915789 100.899666,20.4165132 C99.8755062,20.3755263 100.060115,20.9889474 100.023935,21.5853289 C99.9840449,22.2457237 100.06197,22.6422368 100.920539,22.6247368 C103.521756,22.5708553 106.124828,22.6265789 108.726509,22.5911184 C109.424589,22.5814474 109.670888,22.7721053 109.649087,23.4900658 C109.599456,25.1032895 109.609197,26.7197368 109.645377,28.3334211 C109.659756,28.9546711 109.436185,29.1223026 108.83412,29.12 C103.377037,29.1020395 97.9199551,29.0932895 92.4628728,29.1269079 C91.6641397,29.1319737 91.6121895,28.7759868 91.6154364,28.1561184 C91.6344539,24.5681579 91.6247132,20.9797368 91.6247132,17.3913158" id="Fill-6" fill="#958570"></path>
                            <path d="M43.2262145,25.5785526 C43.2262145,25.7936184 43.2238953,26.0086842 43.2266783,26.2242105 C43.253581,28.6166447 43.2605387,28.6599342 40.8722244,29.0182237 C38.1545835,29.4257895 35.4225636,29.6182895 32.6724539,29.2876316 C28.7650623,28.8178947 26.6759252,27.0153947 25.8934264,23.1557237 C25.1239152,19.3614474 25.1095362,15.5303289 25.8962095,11.7332895 C26.6870574,7.91644737 28.5090224,6.24980263 32.3366334,5.63960526 C35.7797207,5.09111842 39.1699302,5.49960526 42.5522544,6.15907895 C43.1561746,6.27697368 43.2758454,6.56940789 43.2438404,7.11605263 C43.1538554,8.65467105 43.0624788,10.1960526 43.0643342,11.7360526 C43.064798,12.5088158 42.7169177,12.4977632 42.1292319,12.4406579 C40.1922344,12.2532237 38.2543092,12.005 36.302005,12.2656579 C34.7082494,12.4788816 34.1790075,12.9744079 33.9025586,14.5494079 C33.5579252,16.5144737 33.642808,18.4832237 33.9614663,20.4363158 C34.2021995,21.9118421 34.9981496,22.5565789 36.5997905,22.6159868 C38.4407731,22.6841447 40.2854663,22.6477632 42.1190274,22.4543421 C42.9024539,22.3714474 43.2693516,22.58375 43.2030224,23.4274342 C43.1468978,24.1403289 43.1914264,24.8610526 43.1914264,25.5785526 L43.2262145,25.5785526" id="Fill-7" fill="#958570"></path>
                            <path d="M151.594175,5.79203947 C154.231571,5.79203947 156.869431,5.81276316 159.506364,5.77822368 C160.209546,5.76901316 160.455382,5.97486842 160.434509,6.68822368 C160.388125,8.26552632 160.38395,9.84605263 160.4359,11.4228947 C160.460484,12.1578947 160.180324,12.3508553 159.498479,12.3107895 C158.706703,12.2638158 157.904259,12.3573026 157.116195,12.2845395 C156.231651,12.2030263 155.9501,12.4705921 155.959377,13.3911842 C156.007152,18.2336184 155.957985,23.0769737 156.002514,27.9194079 C156.010863,28.8289474 155.835531,29.1780263 154.830853,29.1351974 C152.810828,29.0495395 150.783382,29.0624342 148.762429,29.1310526 C147.837067,29.1623684 147.536963,28.9486842 147.548559,27.965 C147.605611,23.1230263 147.541137,18.2792105 147.6019,13.4372368 C147.614424,12.4397368 147.302723,12.2080921 146.384319,12.2831579 C145.451536,12.3591447 144.505766,12.2684211 143.568344,12.3107895 C142.958394,12.3384211 142.749666,12.1399342 142.764045,11.5232895 C142.801152,9.91006579 142.809037,8.29407895 142.761262,6.68131579 C142.740389,5.96934211 142.977411,5.76763158 143.681521,5.77730263 C146.318454,5.81414474 148.956314,5.79203947 151.594175,5.79203947" id="Fill-8" fill="#958570"></path>
                            <path d="M133.090653,17.4617763 C133.090653,13.9129605 133.11199,10.3636842 133.073955,6.81532895 C133.065606,6.03243421 133.254853,5.74967105 134.093012,5.77223684 C136.257756,5.83072368 138.425746,5.81967105 140.590953,5.77684211 C141.313152,5.76210526 141.498688,6.00019737 141.496833,6.69236842 C141.474569,13.8613816 141.470394,21.0313158 141.501007,28.2003289 C141.504718,29.0011842 141.206933,29.1365789 140.497721,29.1236842 C138.368229,29.085 136.236419,29.0730263 134.107855,29.1282895 C133.296135,29.1494737 133.062359,28.91875 133.0721,28.1082237 C133.115237,24.5598684 133.090653,21.0105921 133.090653,17.4617763" id="Fill-9" fill="#958570"></path>
                        </g>
                    </g>
                </g>
            </g>
        </g>
    </g>
</svg>