<?xml version="1.0" encoding="UTF-8" standalone="no"?>
<svg width="96px" height="79px" viewBox="0 -4 96 72" version="1.1" xmlns="http://www.w3.org/2000/svg" xmlns:xlink="http://www.w3.org/1999/xlink" xmlns:sketch="http://www.bohemiancoding.com/sketch/ns">
    <!-- Generator: Sketch 3.3.3 (12081) - http://www.bohemiancoding.com/sketch -->
    <title>logo-bower</title>
    <desc>Created with Sketch.</desc>
    <defs></defs>
    <g id="ZFC-V2" stroke="none" stroke-width="1" fill="none" fill-rule="evenodd" sketch:type="MSPage">
        <g sketch:type="MSArtboardGroup" transform="translate(-841.000000, -1005.000000)" id="What">
            <g sketch:type="MSLayerGroup" transform="translate(-106.000000, 625.000000)">
                <g id="Group-Copy-+-Easy-to-use-HTML,-CS-+-Type-something" transform="translate(363.000000, 202.000000)" sketch:type="MSShapeGroup">
                    <g id="Group-Copy" transform="translate(0.000000, 175.000000)">
                        <g id="logo-bower" transform="translate(583.614251, 3.000000)">
                            <g id="Group" transform="translate(23.000000, 0.000000)">
                                <path d="M57.8091199,25.3064061 C54.7777946,22.3937089 39.6200211,20.5754234 34.8371784,20.0461201 C35.0688282,19.498978 35.2660746,18.9331051 35.4289176,18.3504127 C36.0809265,18.0648642 36.7847954,17.7991932 37.5124918,17.5773547 C37.6011763,17.8389483 38.0188595,18.8412352 38.2568804,19.3168946 C47.8744258,19.5821833 48.3681788,12.169771 48.7593587,10.1390761 C49.141874,8.15348791 49.1223787,6.23492273 52.4212864,2.72755571 C47.5065638,1.29535323 40.438823,4.94734212 38.071484,10.3829583 C37.1818366,10.0496271 36.2902778,9.80345142 35.4084029,9.65118434 C34.776399,7.10201684 31.4856462,0 22.8501279,0 C11.9165872,0 0,9.01994492 0,24.2889562 C0,37.1239878 8.76293848,48.3722563 13.7139758,48.3722563 C15.8761683,48.3722563 17.7361202,46.7531285 18.1727891,45.3016855 C18.5388671,46.2968369 19.6620758,49.3905981 20.0309571,50.1781821 C20.5761879,51.3428022 23.0977052,52.3505682 24.2011637,51.1419881 C25.6199871,51.9302091 28.2233081,52.4049766 29.6422589,50.3029264 C32.374784,50.8809042 34.7905426,49.2514553 34.8432946,47.3071513 C36.1841368,47.2355411 36.8418796,45.3529084 36.5490681,43.8535556 C36.3332184,42.7497148 34.0275508,38.7888595 33.1282194,37.4216413 C34.9085337,38.8697713 39.4180602,39.2796819 39.965712,37.4225332 C42.8361057,39.6755763 47.3093174,38.4929899 47.6640551,36.6606881 C51.1517994,37.5669002 55.152155,35.5765975 54.4953041,33.1660631 C60.0983503,32.7785785 59.3812297,26.8170994 57.8091199,25.3064061 L57.8091199,25.3064061 Z" id="outline" fill="#543729"></path>
                                <g id="leaf" transform="translate(38.608305, 3.950025)" fill="#00ACEE">
                                    <path d="M3.59987405,8.6422716 C4.80667028,6.24791958 6.32309747,3.63351297 8.23847715,2.0160416 C6.13031078,2.86567915 4.04890265,5.40554498 2.81827885,8.12023125 C2.19098946,7.7215336 1.55414356,7.36590397 0.911946006,7.05487139 C2.62867767,3.39052274 6.61769285,0.330273026 11.0138154,0.0912328266 C8.06926319,2.76170431 9.11449067,8.31212599 6.69350784,11.2504346 C6.00072449,10.5545932 4.41001135,9.21171225 3.59987405,8.6422716 L3.59987405,8.6422716 Z M1.69647186,12.5412007 C1.69774606,12.4495857 1.73202208,11.7427861 1.79636926,11.4201583 C1.62753756,11.3804032 0.578105216,11.1751293 0.0309630962,11.1879988 C-0.00891941042,11.8751756 0.319697154,13.0442555 0.644491113,13.747997 C2.88135183,13.7011064 4.49703932,13.0312586 5.44797589,12.4154371 C4.63834826,12.0380186 3.25685901,11.7025213 2.2064073,11.5018346 C2.08918076,11.7443151 1.80070154,12.3621754 1.69647186,12.5412007 L1.69647186,12.5412007 Z" id="Shape"></path>
                                </g>
                                <path d="M31.9930333,35.4342692 C31.9935429,35.4374547 31.9949446,35.441787 31.9953268,35.4449725 C31.711817,34.8348848 31.4107232,34.0938092 31.0511435,33.1251613 C32.4512361,35.1631191 36.8393312,34.1120303 36.6092104,32.2858448 C38.7570044,33.9019145 43.1781013,32.016606 42.1730112,29.7505661 C44.3245004,30.7531078 46.7801415,28.7359194 46.2294316,27.8569752 C49.8974755,28.5644119 53.4126151,29.269555 54.5160736,29.551918 C53.7830255,30.747119 52.1135667,31.5911501 49.5970188,31.0046352 C50.9568466,32.8570693 48.3167011,35.0794041 44.6393556,33.8554061 C45.4488558,35.6739465 42.1746677,37.311168 38.4533622,35.4156659 C38.5006351,37.2349708 33.8368028,37.4444495 31.9930333,35.4342692 L31.9930333,35.4342692 Z M39.2693609,26.2387393 C43.5265955,26.565572 50.5668135,27.2003792 54.9253471,27.8103394 C54.6499922,26.3918983 53.8978311,25.9867023 51.5317663,25.3511306 C48.9870585,25.6225355 42.5310618,26.2567056 39.2693609,26.2387393 L39.2693609,26.2387393 Z" id="wingtip" fill="#2BAF2B"></path>
                                <path d="M36.6092104,32.2858448 C38.7570044,33.9019145 43.1781013,32.016606 42.1730112,29.7505661 C44.3245004,30.7531078 46.7801415,28.7359194 46.2294316,27.8569752 C41.8928143,27.0208442 37.3422585,26.1816551 36.3100279,26.0349945 C36.9361705,26.0682512 37.9740076,26.1393516 39.2693609,26.2388667 C42.5311892,26.256833 48.9871859,25.6226629 51.5317663,25.351258 C47.4115084,24.3065402 38.9992301,22.7819581 33.1896359,22.4063235 C32.9203971,22.7997969 32.4254972,23.4670962 31.5634999,24.1761894 C29.0217228,29.5542116 24.4163764,33.1289839 19.3208446,33.1289839 C17.8358902,33.1289839 16.1744589,32.8784759 14.3122134,32.2831689 C13.1509061,33.5272993 8.19948658,34.4700809 4.18192929,32.4981267 C7.36870721,39.9601055 14.7590758,44.9412139 22.9395768,44.9412139 C29.8291843,44.9412139 32.8842098,37.9058378 32.2156363,36.0443569 C32.0534304,35.5923976 31.4105958,34.0938092 31.0508887,33.1252887 C32.4512361,35.1631191 36.8392038,34.1120303 36.6092104,32.2858448 L36.6092104,32.2858448 Z" id="body" fill="#FFCC2F"></path>
                                <path d="M32.433907,18.1265355 C33.0422108,17.7956254 35.1443884,16.5214239 37.1475605,16.042579 C37.1159603,15.8207405 37.0921328,15.5969907 37.077352,15.3719668 C35.7631406,15.6866945 33.2854558,16.7486141 31.8656131,15.2851936 C34.8611334,16.1891122 36.3567911,14.4797709 38.5584838,14.4797709 C39.8704017,14.4797709 41.7424585,14.8462312 43.2181113,15.4256106 C42.0311926,14.3291603 38.1390167,11.020059 33.3199867,11.0085912 C32.2440509,12.3129913 31.0810872,15.1385331 32.433907,18.1265355 L32.433907,18.1265355 Z" id="beak" fill="#CECECE"></path>
                                <path d="M14.3122134,32.2831689 C16.1744589,32.8784759 17.8358902,33.1289839 19.3208446,33.1289839 C24.4163764,33.1289839 29.0215954,29.5540842 31.5634999,24.1761894 C29.6835431,25.7454959 26.4162356,27.0882495 21.3136957,27.0882495 C25.858645,26.0576753 29.7712081,23.7927821 31.7615108,20.4821518 C30.3624376,18.2553573 28.8449911,13.3290395 32.6877279,9.43457009 C32.0966258,7.53550019 29.2194789,2.52228185 22.8501279,2.52228185 C11.7345038,2.52228185 2.52240927,11.8235705 2.52240927,24.2888288 C2.52240927,27.2396246 3.11809846,30.0070628 4.18205671,32.4979993 C8.19948658,34.4700809 13.1509061,33.5272993 14.3122134,32.2831689 L14.3122134,32.2831689 Z" id="head" fill="#EF5734"></path>
                                <path d="M17.6471809,13.3035555 C17.6471809,16.1389086 19.945713,18.4376955 22.7811936,18.4376955 C25.6166742,18.4376955 27.9154611,16.1389086 27.9154611,13.3035555 C27.9154611,10.4680749 25.6166742,8.16941543 22.7811936,8.16941543 C19.945713,8.16941543 17.6471809,10.4680749 17.6471809,13.3035555 L17.6471809,13.3035555 Z" id="eye_rim" fill="#FFCC2F"></path>
                                <path d="M19.7073099,13.3035555 C19.7073099,15.0010467 21.0837024,16.3773117 22.7810662,16.3773117 C24.4788122,16.3773117 25.8549498,15.0010467 25.8549498,13.3035555 C25.8549498,11.6059368 24.4789396,10.2296718 22.7810662,10.2296718 C21.0837024,10.2296718 19.7073099,11.6059368 19.7073099,13.3035555 L19.7073099,13.3035555 Z" id="eye" fill="#543729"></path>
                                <ellipse id="pupil_highlight" fill="#FFFFFF" cx="22.7810662" cy="11.9396502" rx="1.79114503" ry="1.1136521"></ellipse>
                            </g>
                            <path d="M1.39474939,58.505 C1.39474939,58.3179991 1.35224981,58.1692506 1.26724939,58.05875 C1.18224896,57.9482494 1.02075058,57.893 0.782749386,57.893 L0.782749386,57.587 L9.55474939,57.587 C10.3707535,57.587 11.0634965,57.6762491 11.6329994,57.85475 C12.2025022,58.0332509 12.6657476,58.2797484 13.0227494,58.59425 C13.3797512,58.9087516 13.6389986,59.2742479 13.8004994,59.69075 C13.9620002,60.1072521 14.0427494,60.5619975 14.0427494,61.055 C14.0427494,61.7180033 13.9025008,62.2917476 13.6219994,62.77625 C13.341498,63.2607524 12.844253,63.5964991 12.1302494,63.7835 L12.1302494,63.8345 C12.861253,64.0045008 13.4222474,64.3827471 13.8132494,64.96925 C14.2042513,65.5557529 14.3997494,66.2654958 14.3997494,67.0985 C14.3997494,68.3395062 14.0087533,69.2999966 13.2267494,69.98 C12.4447455,70.6600034 11.1612583,71 9.37624939,71 L0.782749386,71 L0.782749386,70.694 C1.02075058,70.694 1.18224896,70.6387506 1.26724939,70.52825 C1.35224981,70.4177494 1.39474939,70.2690009 1.39474939,70.082 L1.39474939,58.505 Z M9.37624939,62.942 C10.3452542,62.942 11.0167475,62.7975014 11.3907494,62.5085 C11.7647513,62.2194986 11.9517494,61.777503 11.9517494,61.1825 C11.9517494,60.587497 11.7647513,60.1455014 11.3907494,59.8565 C11.0167475,59.5674986 10.3452542,59.423 9.37624939,59.423 L3.53674939,59.423 L3.53674939,62.942 L9.37624939,62.942 Z M9.93724939,69.164 C10.7532535,69.164 11.3694973,68.9770019 11.7859994,68.603 C12.2025015,68.2289981 12.4107494,67.6850036 12.4107494,66.971 C12.4107494,66.2569964 12.2025015,65.7130019 11.7859994,65.339 C11.3694973,64.9649981 10.7532535,64.778 9.93724939,64.778 L3.53674939,64.778 L3.53674939,69.164 L9.93724939,69.164 Z M27.0022494,59.168 C25.2682407,59.168 23.9295041,59.6227455 22.9859994,60.53225 C22.0424947,61.4417545 21.5707494,62.695492 21.5707494,64.2935 C21.5707494,65.891508 22.0424947,67.1452455 22.9859994,68.05475 C23.9295041,68.9642545 25.2682407,69.419 27.0022494,69.419 C28.7362581,69.419 30.0749947,68.9642545 31.0184994,68.05475 C31.9620041,67.1452455 32.4337494,65.891508 32.4337494,64.2935 C32.4337494,62.695492 31.9620041,61.4417545 31.0184994,60.53225 C30.0749947,59.6227455 28.7362581,59.168 27.0022494,59.168 L27.0022494,59.168 Z M27.0022494,57.434 C28.1072549,57.434 29.1272447,57.5827485 30.0622494,57.88025 C30.9972541,58.1777515 31.8089959,58.6197471 32.4974994,59.20625 C33.1860028,59.7927529 33.7214975,60.5109957 34.1039994,61.361 C34.4865013,62.2110042 34.6777494,63.1884945 34.6777494,64.2935 C34.6777494,65.3985055 34.4865013,66.3759957 34.1039994,67.226 C33.7214975,68.0760042 33.1860028,68.7899971 32.4974994,69.368 C31.8089959,69.9460029 30.9972541,70.3752486 30.0622494,70.65575 C29.1272447,70.9362514 28.1072549,71.0765 27.0022494,71.0765 C25.8972439,71.0765 24.8772541,70.9362514 23.9422494,70.65575 C23.0072447,70.3752486 22.1955028,69.9460029 21.5069994,69.368 C20.8184959,68.7899971 20.2830013,68.0760042 19.9004994,67.226 C19.5179975,66.3759957 19.3267494,65.3985055 19.3267494,64.2935 C19.3267494,63.1884945 19.5179975,62.2110042 19.9004994,61.361 C20.2830013,60.5109957 20.8184959,59.7927529 21.5069994,59.20625 C22.1955028,58.6197471 23.0072447,58.1777515 23.9422494,57.88025 C24.8772541,57.5827485 25.8972439,57.434 27.0022494,57.434 L27.0022494,57.434 Z M41.6137494,70.694 C41.8517506,70.694 41.9962491,70.6727502 42.0472494,70.63025 C42.0982496,70.5877498 42.1237494,70.5155005 42.1237494,70.4135 C42.1237494,70.2944994 42.0982496,70.1627507 42.0472494,70.01825 C41.9962491,69.8737493 41.9537496,69.7420006 41.9197494,69.623 L37.8397494,58.76 C37.7377489,58.4709986 37.62725,58.2542507 37.5082494,58.10975 C37.3892488,57.9652493 37.2107506,57.893 36.9727494,57.893 L36.9727494,57.587 L40.3132494,57.587 L40.3132494,57.893 C40.0922483,57.893 39.9434998,57.9269997 39.8669994,57.995 C39.790499,58.0630003 39.7522494,58.1564994 39.7522494,58.2755 C39.7522494,58.3775005 39.7819991,58.4922494 39.8414994,58.61975 C39.9009997,58.7472506 39.964749,58.8959991 40.0327494,59.066 L43.4752494,68.297 L43.5262494,68.297 L46.9432494,58.5815 C46.9942496,58.4284992 47.0197494,58.3010005 47.0197494,58.199 C47.0197494,57.994999 46.8922507,57.893 46.6372494,57.893 L46.6372494,57.587 L50.1817494,57.587 L50.1817494,57.893 C49.8757479,57.893 49.7227494,58.0034989 49.7227494,58.2245 C49.7227494,58.3095004 49.7482491,58.4157494 49.7992494,58.54325 C49.8502496,58.6707506 49.9012491,58.8024993 49.9522494,58.9385 L53.2672494,67.991 L53.3182494,67.991 L56.7097494,58.811 C56.7437496,58.6919994 56.7777492,58.5942504 56.8117494,58.51775 C56.8457496,58.4412496 56.8627494,58.3520005 56.8627494,58.25 C56.8627494,58.0119988 56.6757513,57.893 56.3017494,57.893 L56.3017494,57.587 L59.5147494,57.587 L59.5147494,57.893 C59.2937483,57.893 59.1322499,57.9524994 59.0302494,58.0715 C58.9282489,58.1905006 58.8092501,58.4199983 58.6732494,58.76 L54.6697494,69.572 C54.584749,69.7930011 54.5167496,69.9629994 54.4657494,70.082 C54.4147491,70.2010006 54.3892494,70.3284993 54.3892494,70.4645 C54.3892494,70.6175008 54.5592477,70.694 54.8992494,70.694 L54.8992494,71 L51.5332494,71 L51.5332494,70.694 C51.7542505,70.694 51.8944991,70.6727502 51.9539994,70.63025 C52.0134997,70.5877498 52.0432494,70.5240004 52.0432494,70.439 C52.0432494,70.3199994 52.0092497,70.1797508 51.9412494,70.01825 C51.873249,69.8567492 51.8137496,69.7080007 51.7627494,69.572 L48.3457494,60.29 L48.2947494,60.29 L44.8777494,69.827 C44.8437492,69.9290005 44.8097496,70.0267495 44.7757494,70.12025 C44.7417492,70.2137505 44.7247494,70.3199994 44.7247494,70.439 C44.7247494,70.6090008 44.8947477,70.694 45.2347494,70.694 L45.2347494,71 L41.6137494,71 L41.6137494,70.694 Z M64.3907494,58.505 C64.3907494,58.3179991 64.3482498,58.1692506 64.2632494,58.05875 C64.178249,57.9482494 64.0167506,57.893 63.7787494,57.893 L63.7787494,57.587 L74.4632494,57.587 C74.9052516,57.587 75.1857488,57.5487504 75.3047494,57.47225 C75.42375,57.3957496 75.4832494,57.2640009 75.4832494,57.077 L75.7892494,57.077 L75.7892494,59.984 L75.4832494,59.984 C75.4832494,59.7629989 75.4152501,59.5887506 75.2792494,59.46125 C75.1432487,59.3337494 74.8797513,59.27 74.4887494,59.27 L66.5327494,59.27 L66.5327494,63.299 L71.7092494,63.299 C72.0152509,63.299 72.2659984,63.2480005 72.4614994,63.146 C72.6570004,63.0439995 72.7547494,62.8570014 72.7547494,62.585 L73.0607494,62.585 L73.0607494,65.6705 L72.7547494,65.6705 C72.7547494,65.4154987 72.6782502,65.2370005 72.5252494,65.135 C72.3722486,65.0329995 72.1172512,64.982 71.7602494,64.982 L66.5327494,64.982 L66.5327494,69.317 L75.0497494,69.317 C75.4067512,69.317 75.6702485,69.2532506 75.8402494,69.12575 C76.0102502,68.9982494 76.0952494,68.7730016 76.0952494,68.45 L76.4012494,68.45 L76.4012494,71.4845 L76.0952494,71.4845 C76.0952494,71.1614984 75.7977524,71 75.2027494,71 L63.7787494,71 L63.7787494,70.694 C64.0167506,70.694 64.178249,70.6387506 64.2632494,70.52825 C64.3482498,70.4177494 64.3907494,70.2690009 64.3907494,70.082 L64.3907494,58.505 Z M90.2787494,63.452 C91.3157546,63.452 92.0467473,63.256502 92.4717494,62.8655 C92.8967515,62.474498 93.1092494,61.9390034 93.1092494,61.259 C93.1092494,60.9189983 93.0667498,60.6300012 92.9817494,60.392 C92.896749,60.1539988 92.7437505,59.9542508 92.5227494,59.79275 C92.3017483,59.6312492 92.0000013,59.5122504 91.6174994,59.43575 C91.2349975,59.3592496 90.7462524,59.321 90.1512494,59.321 L84.6942494,59.321 L84.6942494,63.452 L90.2787494,63.452 Z M84.6942494,70.082 C84.6942494,70.2690009 84.736749,70.4177494 84.8217494,70.52825 C84.9067498,70.6387506 85.0682482,70.694 85.3062494,70.694 L85.3062494,71 L81.9402494,71 L81.9402494,70.694 C82.1782506,70.694 82.339749,70.6387506 82.4247494,70.52825 C82.5097498,70.4177494 82.5522494,70.2690009 82.5522494,70.082 L82.5522494,58.505 C82.5522494,58.3179991 82.5097498,58.1692506 82.4247494,58.05875 C82.339749,57.9482494 82.1782506,57.893 81.9402494,57.893 L81.9402494,57.587 L90.4827494,57.587 C92.1657578,57.587 93.3727457,57.9057468 94.1037494,58.54325 C94.834753,59.1807532 95.2002494,60.102994 95.2002494,61.31 C95.2002494,62.3810054 94.9197522,63.2309969 94.3587494,63.86 C93.7977466,64.4890031 92.8797558,64.8884991 91.6047494,65.0585 L94.8177494,70.031 C95.0047503,70.3030014 95.1534988,70.4814996 95.2639994,70.5665 C95.3744999,70.6515004 95.5572481,70.694 95.8122494,70.694 L95.8122494,71 L92.1402494,71 L92.1402494,70.694 C92.3612505,70.694 92.5014991,70.6770002 92.5609994,70.643 C92.6204997,70.6089998 92.6502494,70.5495004 92.6502494,70.4645 C92.6502494,70.3624995 92.6077498,70.2690004 92.5227494,70.184 L89.3862494,65.186 L84.6942494,65.186 L84.6942494,70.082 Z" id="bower-text-remade" fill="#4A4A4A"></path>
                        </g>
                    </g>
                </g>
            </g>
        </g>
    </g>
</svg>