<?xml version="1.0" encoding="UTF-8" standalone="no"?>
<svg width="64px" height="76px" viewBox="0 0 64 76" version="1.1" xmlns="http://www.w3.org/2000/svg" xmlns:xlink="http://www.w3.org/1999/xlink" xmlns:sketch="http://www.bohemiancoding.com/sketch/ns">
    <!-- Generator: Sketch 3.3.3 (12081) - http://www.bohemiancoding.com/sketch -->
    <title>logo-grunt</title>
    <desc>Created with Sketch.</desc>
    <defs></defs>
    <g id="ZFC-V2" stroke="none" stroke-width="1" fill="none" fill-rule="evenodd" sketch:type="MSPage">
        <g sketch:type="MSArtboardGroup" transform="translate(-745.000000, -1003.000000)" id="What">
            <g sketch:type="MSLayerGroup" transform="translate(-106.000000, 625.000000)">
                <g id="Group-Copy-+-Easy-to-use-HTML,-CS-+-Type-something" transform="translate(363.000000, 202.000000)" sketch:type="MSShapeGroup">
                    <g id="Group-Copy" transform="translate(0.000000, 175.000000)">
                        <g id="logo-grunt" transform="translate(488.000000, 0.972222)">
                            <g id="Layer_1_1_">
                                <g id="Group" transform="translate(9.066667, 0.000000)">
                                    <path d="M3.00302222,14.4744889 C3.00302222,14.4744889 4.02293333,18.4081778 4.16835556,19.7196444 C4.31431111,21.0307556 1.54595556,23.9445333 1.54595556,25.4016 C1.54595556,26.8586667 2.128,29.4810667 5.33368889,30.7925333 C8.53937778,32.1038222 8.976,35.4545778 8.976,37.4947556 C8.976,39.5344 7.81066667,43.4677333 7.81066667,43.4677333 C7.81066667,43.4677333 7.08248889,53.2291556 11.0158222,54.9774222 C14.9491556,56.7255111 14.0753778,56.7255111 14.9491556,56.7255111 C15.8231111,56.7255111 22.2339556,59.3486222 26.0216889,58.3287111 C29.8097778,57.3088 30.8289778,56.1434667 30.8289778,56.1434667 C30.8289778,56.1434667 34.6174222,56.4344889 35.7827556,53.0832 C36.9488,49.7326222 37.6768,42.7395556 37.2396444,39.5340444 C36.8024889,36.3283556 36.2199111,32.104 38.8421333,30.6467556 C41.4652444,29.1896889 44.2330667,27.4419556 43.7959111,25.9847111 C43.3587556,24.5276444 41.0282667,22.4878222 41.0282667,22.4878222 C41.0282667,22.4878222 40.4453333,18.8458667 40.8821333,17.9715556 C41.3189333,17.0974222 43.9416889,14.9114667 42.4846222,13.3091556 C41.0284444,11.7066667 38.4051556,11.7066667 38.4051556,11.7066667 L35.0545778,11.9976889 C35.0545778,11.9976889 29.3726222,6.89866667 21.9422222,7.19004444 C14.5121778,7.48142222 9.8496,11.9976889 9.8496,11.9976889 C9.8496,11.9976889 7.37315556,11.1235556 5.18755556,11.9976889 C3.00195556,12.8721778 2.56622222,11.9975111 3.00302222,14.4744889 L3.00302222,14.4744889 Z" id="Shape" fill="#FBA919"></path>
                                    <path d="M16.3155556,36.1665778 C16.3155556,36.1665778 13.4304,40.5781333 11.3141333,43.7088 C10.9866667,44.1930667 13.4304,44.2266667 13.4304,44.2266667 L16.3155556,36.1665778 L16.3155556,36.1665778 Z" id="Shape" fill="#E78724"></path>
                                    <path d="M17.6892444,27.0202667 C17.6892444,27.0202667 16.8195556,29.1900444 16.3431111,30.3402667 C15.8259556,31.5907556 13.8542222,32.2128 13.8542222,32.2128 C13.8542222,32.2128 14.8762667,31.1408 14.8762667,28.4250667 C14.8762667,27.2856889 16.3472,26.8327111 16.3472,26.8327111 L17.6892444,27.0202667 L17.6892444,27.0202667 Z" id="Shape" fill="#E78724"></path>
                                    <path d="M16.8106667,28.2471111 C16.8106667,28.2471111 15.0288,30.3681778 11.7203556,29.1802667 C8.4112,27.9927111 8.072,23.7500444 8.072,22.5621333 C8.072,21.3742222 14.3505778,23.7500444 15.1992889,24.2592 C16.048,24.7683556 17.6590222,26.8044444 16.8106667,28.2471111 L16.8106667,28.2471111 Z" id="Shape" fill="#E78724"></path>
                                    <path d="M4.31306667,5.58204444 C4.31306667,5.58204444 7.36728889,4.98773333 9.40337778,6.6 C11.4403556,8.21191111 12.0334222,9.48497778 12.0334222,9.48497778 L8.60142222,12.2055111 C8.60142222,12.2055111 6.94311111,11.4366222 6.43395556,9.2304 C5.92497778,7.02435556 6.26435556,6.0064 4.31306667,5.58204444 L4.31306667,5.58204444 Z" id="Shape" fill="#E78724"></path>
                                    <path d="M15.9198222,22.1203556 C14.6048,20.2536889 12.4376889,19.4394667 10.7073778,19.3045333 C7.75697778,19.0737778 6.35626667,20.1168 6.35626667,20.1168 C6.35626667,20.1168 11.1882667,20.3214222 12.5809778,22.1505778 C15.1736889,25.5550222 18.9560889,25.8316444 19.5608889,25.0839111 C18.8615111,25.1187556 18.0920889,24.7722667 17.2686222,23.9936 C16.7541333,23.5064889 16.3370667,22.7128889 15.9198222,22.1203556 L15.9198222,22.1203556 Z" id="Shape" fill="#E78724"></path>
                                    <path d="M7.76284444,28.7207111 C7.76284444,28.7207111 2.4016,26.8776889 3.42062222,25.0113778 C4.43857778,23.1445333 3.62826667,22.1274667 3.62826667,22.1274667 C3.62826667,22.1274667 0.634666667,24.3621333 1.39751111,26.7376 C1.86631111,28.1957333 2.6528,29.2513778 6.97155556,31.2753778 C9.04302222,35.1230222 7.39928889,42.0487111 7.49777778,42.0812444 C7.66186667,42.1358222 10.4062222,40.7248 10.2188444,34.2453333 C10.1617778,32.2556444 10.0026667,29.5393778 7.76284444,28.7207111 L7.76284444,28.7207111 Z" id="Shape" fill="#E78724"></path>
                                    <path d="M14.7882667,8.90204444 C12.5402667,10.0440889 9.46062222,11.6344889 9.46062222,11.6344889 L10.6727111,12.2408889 C10.5569778,12.4282667 10.5011556,12.5400889 10.5011556,12.5400889 L11.7452444,13.1057778 C11.7452444,13.1057778 14.7822222,15.3057778 16.6430222,16.7201778 C16.0225778,14.8097778 14.2014222,11.8085333 14.2014222,11.8085333 C14.2014222,11.8085333 13.6853333,10.4295111 14.7882667,8.90204444 L14.7882667,8.90204444 Z" id="Shape" fill="#E78724"></path>
                                    <path d="M22.2561778,55.4549333 C15.3466667,55.4549333 13.0062222,51.9472 13.0062222,51.9472 L14.0860444,54.5767111 C14.4942222,55.7143111 18.8483556,59.2542222 22.2456889,59.2542222" id="Shape" fill="#E78724"></path>
                                    <path d="M13.7633778,49.5770667 C13.7633778,49.5770667 14.3991111,53.4622222 16.9445333,53.4622222 C19.1075556,53.4622222 19.7448889,50.1804444 19.7448889,49.5022222 L13.7633778,49.5770667 L13.7633778,49.5770667 Z" id="Shape" fill="#E78724"></path>
                                    <path d="M9.52746667,43.7176889 C9.7536,43.0951111 10.5454222,40.5781333 10.7998222,38.2874667 C11.1047111,35.544 10.9936,31.5313778 10.9936,31.5313778 C10.9936,31.5313778 10.3144889,34.1616 9.72053333,34.5866667 C9.12693333,35.0106667 8.02364444,37.8951111 8.02364444,37.8951111 C8.02364444,37.8951111 7.43271111,42.1895111 7.15146667,43.6328889 C7.92977778,43.7888 8.58506667,43.3301333 9.52746667,43.7176889 L9.52746667,43.7176889 Z" id="Shape" fill="#E78724"></path>
                                    <path d="M3.38062222,26.6954667 C3.38062222,26.6954667 4.82257778,26.1859556 5.24728889,23.0471111 C5.67128889,19.9075556 4.73777778,17.1925333 4.73777778,17.1925333 C4.73777778,17.1925333 4.82257778,21.5196444 4.31377778,22.3683556 C3.80426667,23.2165333 3.38062222,23.4711111 2.78631111,24.5744 C2.192,25.6778667 3.04071111,26.3559111 3.38062222,26.6954667 L3.38062222,26.6954667 Z" id="Shape" fill="#E78724"></path>
                                    <path id="Shape" fill="#FDC168" d="M5.1024,6.32462222 L4.808,6.13813333 C3.93991111,6.16746667 5.1024,6.32462222 5.1024,6.32462222 L5.1024,6.32462222 Z"></path>
                                    <path d="M15.9619556,7.97262222 C15.9619556,7.97262222 14.6048,7.74648889 13.9256889,6.72853333 C13.2465778,5.71022222 11.3237333,3.6736 8.25831111,3.65084444 C5.19306667,3.62791111 2.16035556,4.4656 2.16035556,4.4656 L4.80764444,6.13831111 C5.08764444,6.12924444 5.57724444,6.13297778 6.38684444,6.16 C9.70915556,6.2704 10.2206222,9.55662222 10.2206222,9.55662222 L21.9294222,7.94435556" id="Shape" fill="#FBA919"></path>
                                    <path d="M17.0935111,26.1230222 C17.0935111,26.1230222 15.5095111,27.7070222 13.0769778,27.1975111 C10.6444444,26.6887111 9.17351111,25.6138667 9.06044444,23.7470222 C8.94737778,21.8803556 9.56995556,21.1450667 9.56995556,21.1450667 C9.56995556,21.1450667 12.2848,21.9941333 13.5864889,23.1255111 C14.8874667,24.2565333 15.8488889,26.0666667 17.0935111,26.1230222 L17.0935111,26.1230222 Z" id="Shape" fill="#FFFFFF"></path>
                                    <path d="M15.1765333,25.5571556 C15.1765333,25.5571556 13.8028444,26.1847111 12.2673778,25.6736 C10.2574222,25.0032 10.1235556,22.9128889 10.1235556,22.9128889 C10.1235556,22.9128889 8.89048889,26.5313778 12.3475556,27.2279111 C15.1203556,27.7864889 16.7601778,26.1797333 16.7601778,26.1797333 L15.1765333,25.5571556 L15.1765333,25.5571556 Z" id="Shape" fill="#C9C9C9"></path>
                                    <path d="M16.1527111,7.20497778 C16.0049778,4.10168889 18.5489778,1.63004444 19.4304,1.5248 C19.4791111,2.05066667 19.3813333,4.10186667 20.2625778,4.73262222 C20.5191111,3.05724444 21.3866667,1.21013333 24.8124444,0 C24.0787556,1.94595556 24.7144889,3.576 25.0172444,4.33155556 C27.3566222,2.20817778 28.9328,2.55911111 28.9328,2.55911111 C28.9328,2.55911111 27.3073778,5.36391111 27.9431111,7.20426667 C23.2469333,6.83608889 16.1756444,7.70328889 16.1527111,7.20497778 L16.1527111,7.20497778 Z" id="Shape" fill="#463014"></path>
                                    <path d="M6.1968,11.9319111 C5.07626667,11.0023111 5.91146667,10.1395556 5.82293333,9.08337778 C5.77475556,8.52142222 5.73031111,7.99111111 5.54506667,7.69866667 C4.51395556,6.0704 2.08142222,5.57635556 2.05706667,5.5712 L0.915377778,5.34755556 L1.67111111,4.46346667 C1.76906667,4.34897778 4.87271111,1.38773333 9.67555556,2.93831111 C13.0352,4.02186667 15.5223111,7.69617778 15.6149333,7.84462222 L13.9303111,8.6368 C13.9105778,8.60551111 11.9443556,5.15182222 9.06204444,4.2224 C6.73208889,3.47057778 4.58471111,4.18577778 3.66488889,4.65457778 C4.64266667,5.04497778 5.92106667,5.75591111 6.69137778,6.97208889 C7.05475556,7.54648889 7.11608889,8.26968889 7.17528889,8.96995556 C7.25333333,9.89706667 7.3264,10.7722667 8.00871111,11.3390222 L6.1968,11.9319111 L6.1968,11.9319111 Z" id="Shape" fill="#463014"></path>
                                    <path d="M3.20408889,25.5022222 C3.20408889,25.5022222 4.61582222,23.7516444 5.03395556,20.3452444 C5.19822222,19.0035556 4.90648889,16.3571556 4.43964444,15.3390222 C4.52444444,17.8419556 3.88817778,20.3452444 3.88817778,20.3452444 C3.88817778,20.3452444 3.4592,24.9930667 3.20408889,25.5022222 L3.20408889,25.5022222 Z" id="Shape" fill="#463014"></path>
                                    <path d="M10.6481778,10.1639111 C10.6474667,10.1601778 10.1952,8.18382222 8.94133333,7.18613333 C7.17262222,5.7792 5.01297778,6.52764444 4.99217778,6.53422222 L4.67857778,5.56551111 C4.78311111,5.53155556 7.25155556,4.75377778 9.5264,6.35288889 C11.8149333,7.96106667 12.0896,9.41884444 12.1134222,9.57991111 L10.6481778,10.1639111 L10.6481778,10.1639111 Z" id="Shape" fill="#463014"></path>
                                    <path d="M7.63804444,24.2467556 C7.63804444,24.2467556 6.89742222,23.1864889 7.03057778,22.0204444 C7.09688889,21.4446222 7.36373333,20.8535111 7.84017778,20.6437333 C8.72551111,20.2547556 9.11786667,21.2583111 9.11786667,21.2583111 C9.11786667,21.2583111 7.87182222,21.5658667 7.63804444,24.2467556 L7.63804444,24.2467556 Z" id="Shape" fill="#463014"></path>
                                    <path d="M15.7701333,25.8627556 C15.8010667,25.9205333 15.8168889,25.9528889 15.8168889,25.9528889 C15.8168889,25.9528889 13.5068444,27.6865778 11.1393778,25.9272889 C9.87217778,24.9847111 9.99182222,22.6531556 10.3800889,21.6643556 C11.3896889,21.8931556 12.2460444,22.3056 12.9617778,22.7872 C12.0572444,21.9799111 11.2654222,21.3856 11.2675556,21.3719111 L10.2394667,21.0808889 L8.24124444,20.3957333 C8.21564444,20.5480889 7.48675556,23.9644444 9.59057778,26.2922667 C10.5230222,27.3244444 14.8945778,29.6359111 16.9701333,25.6835556 L15.7701333,25.8627556 L15.7701333,25.8627556 Z" id="Shape" fill="#463014"></path>
                                    <path d="M15.5537778,26.1168 C16.8544,28.0963556 20.136,26.9651556 20.0794667,24.8723556 C20.0794667,24.8723556 17.8867556,26.0824889 15.9495111,23.8544 C14.8184889,22.5536 11.1943111,18.9669333 6.27946667,20.1589333 C9.6736,20.9052444 14.1669333,24.0062222 15.5537778,26.1168 L15.5537778,26.1168 Z" id="Shape" fill="#463014"></path>
                                    <path d="M5.82026667,31.7036444 C6.13315556,31.8844444 7.23662222,33.0272 7.23733333,34.7363556 C7.23733333,35.5934222 7.152,39.8990222 6.72782222,42.5294222 C7.36586667,42.944 7.81031111,43.0321778 8.44568889,43.4547556 C8.76373333,40.4083556 8.99182222,35.9930667 8.88551111,34.2106667 C8.76391111,32.1788444 7.67608889,30.8152889 6.6672,30.2337778 C6.35128889,30.0520889 6.02115556,29.8734222 5.68871111,29.6936889 C3.96071111,28.76 2.17386667,27.7941333 2.17386667,26.1448889 C2.17386667,24.8547556 2.67537778,24.4512 3.2064,24.0234667 L3.26364444,23.9770667 C3.616,23.6924444 4.01475556,23.3696 4.25102222,22.8394667 C4.89564444,21.3900444 5.00106667,17.6979556 4.25102222,16.7607111 C3.87715556,16.2936889 2.87537778,14.7232 3.16337778,13.6679111 C3.27306667,13.2650667 3.52675556,12.9665778 3.93973333,12.7550222 C4.37671111,12.5312 4.96711111,12.4177778 5.69386667,12.4177778 C7.12142222,12.4177778 8.70471111,12.8522667 9.5216,13.1109333 C12.4405333,14.0360889 15.9626667,16.7034667 16.9722667,17.4990222 C17.0012444,17.5212444 17.0183111,17.5342222 17.0213333,17.5363556 L17.6673778,17.9856 L17.2632889,17.3095111 C17.2384,17.2673778 14.6794667,13.0597333 10.104,11.5169778 C9.21386667,11.2168889 7.46506667,10.7132444 5.74648889,10.7132444 C4.7232,10.7132444 3.85493333,10.8919111 3.16746667,11.2439111 C2.3296,11.6725333 1.76213333,12.3564444 1.5264,13.2209778 C0.948622222,15.3402667 2.8304,17.6999111 2.89457778,17.7752889 C3.11395556,18.1669333 3.20693333,21.0119111 2.70008889,22.1505778 C2.6304,22.3077333 2.43928889,22.4622222 2.19733333,22.6574222 C2.1216,22.7187556 2.0368,22.7824 1.94702222,22.8504889 C1.232,23.3902222 0.150755556,24.2056889 0.150755556,26.0853333 C0.150755556,28.6572444 2.75733333,30.0517333 4.85208889,31.1729778 C5.19573333,31.3578667 5.52373333,31.5328 5.82026667,31.7036444 L5.82026667,31.7036444 Z" id="Shape" fill="#463014"></path>
                                    <g transform="translate(0.533333, 2.311111)" id="Shape" fill="#463014">
                                        <path d="M5.66346667,9.6208 C4.54293333,8.6912 5.37813333,7.82844444 5.2896,6.77226667 C5.24142222,6.21031111 5.19697778,5.68 5.01173333,5.38755556 C3.98062222,3.75928889 1.54808889,3.26524444 1.52373333,3.26008889 L0.382044444,3.03644444 L1.13777778,2.15235556 C1.23573333,2.03786667 4.33937778,-0.923377778 9.14222222,0.6272 C12.5018667,1.71075556 14.9889778,5.38506667 15.0816,5.53351111 L13.3969778,6.32568889 C13.3772444,6.2944 11.4110222,2.84071111 8.52871111,1.91128889 C6.19875556,1.15946667 4.05137778,1.87466667 3.13155556,2.34346667 C4.10933333,2.73386667 5.38773333,3.4448 6.15804444,4.66097778 C6.52142222,5.23537778 6.58275556,5.95857778 6.64195556,6.65884444 C6.72,7.58595556 6.79306667,8.46115556 7.47537778,9.02791111 L5.66346667,9.6208 L5.66346667,9.6208 Z"></path>
                                        <path d="M5.62702222,9.8112 L5.55466667,9.75128889 C4.72373333,9.06168889 4.87111111,8.3824 5.01386667,7.72515556 C5.07875556,7.42186667 5.1472,7.10826667 5.11946667,6.78666667 C5.07413333,6.24586667 5.03057778,5.73564444 4.86773333,5.47804444 C3.88586667,3.92782222 1.51306667,3.43111111 1.4896,3.42631111 L0.0636444444,3.14666667 L1.00888889,2.0416 C1.02613333,2.02097778 3.01884444,0.00942222222 6.39377778,0.00942222222 C7.31377778,0.00942222222 8.25635556,0.162488889 9.19413333,0.465422222 C12.7006222,1.59608889 15.2021333,5.40568889 15.2257778,5.44337778 L15.3269333,5.60515556 L13.3342222,6.5424 L13.2542222,6.41546667 C13.0398222,6.04995556 11.1504,2.93404444 8.47751111,2.07182222 C7.82097778,1.85991111 7.12942222,1.75288889 6.4224,1.75288889 C5.14186667,1.75288889 4.10346667,2.10186667 3.55093333,2.33617778 C4.47431111,2.752 5.59413333,3.45191111 6.30275556,4.56942222 C6.688,5.17813333 6.7504,5.92213333 6.81155556,6.64088889 C6.88657778,7.53475556 6.95751111,8.37528889 7.58453333,8.89582222 L7.82115556,9.09208889 L5.62702222,9.8112 L5.62702222,9.8112 Z"></path>
                                    </g>
                                    <g transform="translate(4.444444, 5.155556)" id="Shape" fill="#463014">
                                        <path d="M6.20373333,5.00835556 C6.20302222,5.00462222 5.75075556,3.02826667 4.49688889,2.03057778 C2.72817778,0.623644444 0.568533333,1.37208889 0.547733333,1.37866667 L0.234133333,0.409955556 C0.338666667,0.376 2.80711111,-0.401777778 5.08195556,1.19733333 C7.37048889,2.80551111 7.64515556,4.26328889 7.66897778,4.42435556 L6.20373333,5.00835556 L6.20373333,5.00835556 Z"></path>
                                        <path d="M6.08213333,5.23946667 L6.03804444,5.04497778 C6.03342222,5.02595556 5.58986667,3.11715556 4.39075556,2.16373333 C3.70737778,1.61955556 2.8832,1.34328889 1.94257778,1.34328889 C1.20835556,1.34328889 0.662755556,1.51857778 0.6032,1.5392 L0.441066667,1.59306667 L0.0204444444,0.3008 L0.181688889,0.248711111 C0.254044444,0.225777778 0.909155556,0.0215111111 1.83591111,0.0215111111 C3.05848889,0.0215111111 4.2144,0.380266667 5.18008889,1.05831111 C7.52586667,2.70684444 7.81226667,4.23128889 7.8368,4.39946667 L7.85742222,4.53244444 L6.08213333,5.23946667 L6.08213333,5.23946667 Z M1.94275556,1.00444444 C2.94755556,1.00444444 3.86791111,1.31342222 4.60248889,1.8976 C5.6672,2.7456 6.168,4.24266667 6.31946667,4.77937778 L7.4736,4.31946667 C7.36906667,3.912 6.90897778,2.68906667 4.98471111,1.33635556 C4.064,0.689244444 3.00497778,0.361422222 1.83608889,0.361422222 C1.19466667,0.361422222 0.696355556,0.463466667 0.450133333,0.525688889 L0.658311111,1.16906667 C0.899733333,1.10417778 1.36426667,1.00444444 1.94275556,1.00444444 L1.94275556,1.00444444 Z"></path>
                                    </g>
                                    <path d="M16.8382222,52.5301333 L16.8382222,52.5301333 C16.3368889,52.5301333 15.8252444,52.3482667 15.4705778,52.0412444 C15.1991111,51.8072889 14.2810667,50.9640889 13.8762667,49.9310222 C13.7251556,49.5447111 13.7591111,49.2357333 13.9783111,49.0133333 C14.1294222,48.8609778 14.4430222,48.6787556 15.0796444,48.6787556 L15.5326222,48.6780444 C16.0723556,48.6775111 16.9811556,48.6775111 17.7578667,48.6775111 L18.5025778,48.6775111 C18.9868444,48.6775111 19.3340444,48.7822222 19.5336889,48.9863111 C19.7900444,49.2497778 19.7079111,49.5848889 19.6362667,49.7612444 C19.5114667,50.0702222 18.9950222,51.0757333 18.1207111,52.0104889 C17.8076444,52.3454222 17.352,52.5301333 16.8382222,52.5301333 L16.8382222,52.5301333 Z" id="Shape" fill="#463014"></path>
                                    <path d="M17.3637333,26.2332444 L15.5536,26.1168 C15.5536,26.1168 16.0163556,26.9324444 16.3160889,27.9873778 C16.6545778,29.1806222 16.0065778,30.9244444 16.0065778,30.9244444 C16.0065778,30.9244444 18.4200889,28.192 17.3637333,26.2332444 L17.3637333,26.2332444 Z" id="Shape" fill="#463014"></path>
                                    <path d="M15.1041778,57.3096889 C8.66168889,56.8145778 6.39502222,50.7269333 6.39502222,49.4590222 L8.07751111,49.4597333 L7.23626667,49.4590222 L8.07751111,49.4590222 C8.08586667,50.0071111 9.79804444,55.2145778 15.2330667,55.6325333 L15.1041778,57.3096889 L15.1041778,57.3096889 Z" id="Shape" fill="#463014"></path>
                                    <path d="M13.2936889,46.4028444 C13.1930667,45.8209778 13.1825778,45.2691556 13.3054222,44.7269333 C12.8158222,44.3589333 11.9372444,44.2222222 11.2780444,44.0085333 C10.7390222,43.6673778 7.98062222,44.3582222 5.97937778,41.9363556 C3.472,38.9036444 3.99964444,37.0929778 3.99964444,37.0929778 C3.3568,37.8072889 2.73368889,37.5351111 1.75377778,40.8656 C0.772444444,44.1968 2.2144,46.5191111 4.90186667,48.8504889 C6.17155556,49.9518222 7.9664,50.4055111 9.51022222,50.5792 C8.99306667,50.0599111 10.3936,50.008 11.3589333,49.6467556 C11.2819556,48.8673778 11.4108444,48.1107556 11.992,47.5015111 C12.3424,47.1342222 12.7932444,46.9146667 13.2609778,46.7397333 C13.2871111,46.6792889 13.3091556,46.6234667 13.3340444,46.5655111 C13.3185778,46.5125333 13.3034667,46.4590222 13.2936889,46.4028444 L13.2936889,46.4028444 Z" id="Shape" fill="#FFFFFF"></path>
                                    <path d="M11.3459556,49.6264889 C11.2901333,49.4629333 11.248,49.2961778 11.2065778,49.1283556 C11.1619556,48.9450667 10.9397333,48.4257778 11.2136889,49.0186667 C11.1432889,48.8668444 11.0972444,48.7104 11.0632889,48.5527111 C6.71093333,48.5472 2.92444444,45.5589333 3.656,39.2764444 C3.08622222,38.52 2.28835556,40.8017778 2.28835556,40.8017778 C2.28835556,40.8017778 0.109511111,47.1285333 5.73688889,49.5806222 C7.61191111,50.3984 9.26897778,50.9845333 9.65991111,50.7479111 C10.4743111,50.9134222 11.2094222,50.3456 11.4851556,49.9722667 C11.4334222,49.8576 11.3863111,49.7427556 11.3459556,49.6264889 L11.3459556,49.6264889 Z" id="Shape" fill="#C9C9C9"></path>
                                    <path d="M13.2152889,45.4919111 C13.2220444,44.9616 13.3303111,44.448 13.5866667,43.9361778 C13.6046222,43.9009778 13.6254222,43.8672 13.6446222,43.8328889 C11.9697778,43.8184889 10.0408889,43.6581333 8.3984,43.0007111 C6.59306667,42.2785778 4.33475556,39.808 3.94666667,36.9052444 C3.94666667,36.9052444 0.546666667,39.5288889 1.54577778,45.1445333 C2.48355556,50.4177778 6.89617778,52.1368889 11.9287111,52.4277333 C11.9313778,52.3936 11.3626667,51.2188444 11.5424,50.4997333 C8.6848,50.7073778 5.48924444,49.6033778 3.94666667,47.0650667 C2.5344,44.7418667 2.93048889,40.7754667 3.51093333,40.1943111 C4.92675556,44.6616889 10.0211556,45.5697778 13.2152889,45.4919111 L13.2152889,45.4919111 Z" id="Shape" fill="#463014"></path>
                                    <path d="M13.7425778,42.2936889 C12.8369778,44.9512889 10.9872,47.1020444 10.9872,47.1020444 C10.9872,47.1020444 13.5317333,46.9863111 13.6721778,46.536 C13.7761778,46.2040889 15.9697778,41.0689778 16.8117333,35.0535111 C16.0197333,36.3546667 13.8200889,42.0661333 13.7425778,42.2936889 L13.7425778,42.2936889 Z" id="Shape" fill="#463014"></path>
                                    <path d="M28.1587556,36.1665778 C28.1587556,36.1665778 31.0432,40.5781333 33.1601778,43.7088 C33.4876444,44.1930667 31.0432,44.2266667 31.0432,44.2266667 L28.1587556,36.1665778 L28.1587556,36.1665778 Z" id="Shape" fill="#E78724"></path>
                                    <path d="M26.7847111,27.0202667 C26.7847111,27.0202667 27.6545778,29.1900444 28.1303111,30.3402667 C28.6474667,31.5907556 30.6190222,32.2128 30.6190222,32.2128 C30.6190222,32.2128 29.5971556,31.1408 29.5971556,28.4250667 C29.5971556,27.2856889 28.1264,26.8327111 28.1264,26.8327111 L26.7847111,27.0202667 L26.7847111,27.0202667 Z" id="Shape" fill="#E78724"></path>
                                    <path d="M27.6631111,28.2471111 C27.6631111,28.2471111 29.4449778,30.3681778 32.7543111,29.1802667 C36.0636444,27.9923556 36.4026667,23.7500444 36.4026667,22.5621333 C36.4026667,21.3742222 30.1240889,23.7500444 29.2753778,24.2592 C28.4266667,24.7683556 26.8149333,26.8044444 27.6631111,28.2471111 L27.6631111,28.2471111 Z" id="Shape" fill="#E78724"></path>
                                    <path d="M40.1610667,5.58204444 C40.1610667,5.58204444 37.1068444,4.98773333 35.0700444,6.6 C33.0339556,8.21191111 32.4398222,9.48497778 32.4398222,9.48497778 L35.872,12.2053333 C35.872,12.2053333 37.5310222,11.4364444 38.0401778,9.23022222 C38.5489778,7.02435556 38.2097778,6.0064 40.1610667,5.58204444 L40.1610667,5.58204444 Z" id="Shape" fill="#E78724"></path>
                                    <path d="M28.5543111,22.1203556 C29.8693333,20.2536889 32.0357333,19.4394667 33.7667556,19.3045333 C36.7173333,19.0737778 38.1173333,20.1168 38.1173333,20.1168 C38.1173333,20.1168 33.2853333,20.3214222 31.8924444,22.1505778 C29.2995556,25.5550222 25.5184,25.8316444 24.9136,25.0839111 C25.6128,25.1187556 26.3825778,24.7722667 27.2055111,23.9936 C27.7198222,23.5064889 28.1370667,22.7128889 28.5543111,22.1203556 L28.5543111,22.1203556 Z" id="Shape" fill="#E78724"></path>
                                    <path d="M36.7112889,28.7207111 C36.7112889,28.7207111 42.0718222,26.8776889 41.0536889,25.0113778 C40.0357333,23.1445333 40.8453333,22.1274667 40.8453333,22.1274667 C40.8453333,22.1274667 43.8396444,24.3621333 43.0760889,26.7376 C42.6072889,28.1957333 41.8208,29.2513778 37.5020444,31.2753778 C35.4305778,35.1230222 37.0743111,42.0487111 36.9763556,42.0812444 C36.8120889,42.1358222 34.0680889,40.7248 34.2554667,34.2453333 C34.3123556,32.2556444 34.4714667,29.5393778 36.7112889,28.7207111 L36.7112889,28.7207111 Z" id="Shape" fill="#E78724"></path>
                                    <path d="M29.6860444,8.90204444 C31.9333333,10.0440889 35.0135111,11.6344889 35.0135111,11.6344889 L33.8016,12.2408889 C33.9173333,12.4282667 33.9733333,12.5400889 33.9733333,12.5400889 L32.7292444,13.1057778 C32.7292444,13.1057778 29.6920889,15.3057778 27.8312889,16.7201778 C28.4510222,14.8097778 30.2721778,11.8085333 30.2721778,11.8085333 C30.2721778,11.8085333 30.7891556,10.4295111 29.6860444,8.90204444 L29.6860444,8.90204444 Z" id="Shape" fill="#E78724"></path>
                                    <path d="M22.2183111,55.4549333 C29.1267556,55.4549333 31.4672,51.9472 31.4672,51.9472 L30.3880889,54.5767111 C29.9799111,55.7143111 25.6254222,59.2542222 22.2288,59.2542222" id="Shape" fill="#E78724"></path>
                                    <path d="M30.7107556,49.5770667 C30.7107556,49.5770667 30.0743111,53.4622222 27.5296,53.4622222 C25.3669333,53.4622222 24.7294222,50.1804444 24.7294222,49.5022222 L30.7107556,49.5770667 L30.7107556,49.5770667 Z" id="Shape" fill="#E78724"></path>
                                    <path d="M34.9466667,43.7176889 C34.7205333,43.0951111 33.9287111,40.5781333 33.6736,38.2874667 C33.3687111,35.544 33.4805333,31.5313778 33.4805333,31.5313778 C33.4805333,31.5313778 34.1594667,34.1616 34.7527111,34.5866667 C35.3472,35.0106667 36.4497778,37.8951111 36.4497778,37.8951111 C36.4497778,37.8951111 37.0407111,42.1895111 37.3219556,43.6328889 C36.5438222,43.7888 35.8892444,43.3301333 34.9466667,43.7176889 L34.9466667,43.7176889 Z" id="Shape" fill="#E78724"></path>
                                    <path d="M41.0940444,26.6954667 C41.0940444,26.6954667 39.6513778,26.1859556 39.2273778,23.0471111 C38.8033778,19.9075556 39.7367111,17.1925333 39.7367111,17.1925333 C39.7367111,17.1925333 39.6513778,21.5196444 40.1607111,22.3683556 C40.6702222,23.2168889 41.0940444,23.4711111 41.6881778,24.5744 C42.2816,25.6776889 41.4332444,26.3559111 41.0940444,26.6954667 L41.0940444,26.6954667 Z" id="Shape" fill="#E78724"></path>
                                    <path id="Shape" fill="#FDC168" d="M39.3715556,6.32462222 L39.6664889,6.13813333 C40.5347556,6.16746667 39.3715556,6.32462222 39.3715556,6.32462222 L39.3715556,6.32462222 Z"></path>
                                    <path d="M28.5116444,7.97262222 C28.5116444,7.97262222 29.8695111,7.74648889 30.5479111,6.72853333 C31.2268444,5.71022222 33.1504,3.6736 36.216,3.65084444 C39.2812444,3.62791111 42.3139556,4.4656 42.3139556,4.4656 L39.6664889,6.13831111 C39.3864889,6.12924444 38.8968889,6.13297778 38.0865778,6.16 C34.7648,6.2704 34.2533333,9.55662222 34.2533333,9.55662222 L22.5448889,7.94435556" id="Shape" fill="#FBA919"></path>
                                    <path d="M27.3806222,26.1230222 C27.3806222,26.1230222 28.9646222,27.7070222 31.3966222,27.1975111 C33.8293333,26.6887111 35.3000889,25.6138667 35.4133333,23.7470222 C35.5262222,21.8803556 34.9043556,21.1450667 34.9043556,21.1450667 C34.9043556,21.1450667 32.1888,21.9941333 30.8878222,23.1255111 C29.5868444,24.2568889 28.6254222,26.0666667 27.3806222,26.1230222 L27.3806222,26.1230222 Z" id="Shape" fill="#FFFFFF"></path>
                                    <path d="M29.2970667,25.5571556 C29.2970667,25.5571556 30.6712889,26.1847111 32.2062222,25.6736 C34.2167111,25.0032 34.3505778,22.9128889 34.3505778,22.9128889 C34.3505778,22.9128889 35.5829333,26.5313778 32.1258667,27.2279111 C29.3536,27.7864889 27.7134222,26.1797333 27.7134222,26.1797333 L29.2970667,25.5571556 L29.2970667,25.5571556 Z" id="Shape" fill="#C9C9C9"></path>
                                    <path d="M38.2771556,11.9319111 C39.3976889,11.0023111 38.5632,10.1395556 38.6517333,9.08337778 C38.6990222,8.52142222 38.7434667,7.99111111 38.9288889,7.69866667 C39.9601778,6.0704 42.3925333,5.57635556 42.4176,5.5712 L43.5594667,5.34755556 L42.8035556,4.46346667 C42.7056,4.34897778 39.6019556,1.38773333 34.7984,2.93831111 C31.4392889,4.02186667 28.9521778,7.69617778 28.8597333,7.84462222 L30.5436444,8.6368 C30.5640889,8.60551111 32.5304889,5.15182222 35.4128,4.2224 C37.7425778,3.47057778 39.8899556,4.18577778 40.8092444,4.65457778 C39.832,5.04497778 38.5530667,5.75591111 37.7827556,6.97208889 C37.4193778,7.54648889 37.3585778,8.26968889 37.2995556,8.96995556 C37.2215111,9.89706667 37.1477333,10.7722667 36.4652444,11.3390222 L38.2771556,11.9319111 L38.2771556,11.9319111 Z" id="Shape" fill="#463014"></path>
                                    <path d="M41.2693333,25.5022222 C41.2693333,25.5022222 39.8583111,23.7516444 39.4401778,20.3452444 C39.2759111,19.0035556 39.5671111,16.3571556 40.0337778,15.3390222 C39.9489778,17.8419556 40.5857778,20.3452444 40.5857778,20.3452444 C40.5857778,20.3452444 41.0149333,24.9930667 41.2693333,25.5022222 L41.2693333,25.5022222 Z" id="Shape" fill="#463014"></path>
                                    <path d="M33.8259556,10.1639111 C33.8266667,10.1601778 34.2789333,8.18382222 35.5329778,7.18613333 C37.3015111,5.7792 39.4613333,6.52764444 39.4814222,6.53422222 L39.7959111,5.56551111 C39.6910222,5.53155556 37.2229333,4.75377778 34.9473778,6.35288889 C32.6588444,7.96106667 32.3848889,9.41884444 32.3603556,9.57991111 L33.8259556,10.1639111 L33.8259556,10.1639111 Z" id="Shape" fill="#463014"></path>
                                    <path d="M36.8360889,24.2467556 C36.8360889,24.2467556 37.5767111,23.1864889 37.4428444,22.0204444 C37.3772444,21.4446222 37.1104,20.8535111 36.6339556,20.6437333 C35.7486222,20.2547556 35.3560889,21.2583111 35.3560889,21.2583111 C35.3560889,21.2583111 36.6023111,21.5658667 36.8360889,24.2467556 L36.8360889,24.2467556 Z" id="Shape" fill="#463014"></path>
                                    <path d="M28.7041778,25.8627556 C28.6732444,25.9205333 28.6572444,25.9528889 28.6572444,25.9528889 C28.6572444,25.9528889 30.9665778,27.6865778 33.3340444,25.9272889 C34.6021333,24.9847111 34.4823111,22.6531556 34.0933333,21.6643556 C33.0842667,21.8931556 32.2280889,22.3056 31.512,22.7872 C32.4167111,21.9799111 33.2085333,21.3856 33.2056889,21.3719111 L34.2344889,21.0808889 L36.2325333,20.3960889 C36.2581333,20.5484444 36.9868444,23.9648 34.8823111,26.2926222 C33.9500444,27.3248 29.5784889,29.6362667 27.5034667,25.6839111 L28.7041778,25.8627556 L28.7041778,25.8627556 Z" id="Shape" fill="#463014"></path>
                                    <path d="M28.9198222,26.1168 C27.6192,28.0963556 24.3384889,26.9651556 24.3952,24.8723556 C24.3952,24.8723556 26.5872,26.0824889 28.5244444,23.8544 C29.6554667,22.5536 33.2803556,18.9669333 38.1950222,20.1589333 C34.8010667,20.9052444 30.3073778,24.0062222 28.9198222,26.1168 L28.9198222,26.1168 Z" id="Shape" fill="#463014"></path>
                                    <path d="M38.6544,31.7036444 C38.3413333,31.8844444 37.2373333,33.0272 37.2373333,34.7363556 C37.2366222,35.5934222 37.3221333,39.8990222 37.7468444,42.5294222 C37.1086222,42.944 36.6641778,43.0321778 36.0288,43.4547556 C35.7107556,40.4083556 35.4819556,35.9930667 35.5889778,34.2106667 C35.7104,32.1788444 36.7978667,30.8152889 37.8065778,30.2337778 C38.1224889,30.0520889 38.4528,29.8734222 38.7859556,29.6936889 C40.5139556,28.76 42.3008,27.7941333 42.3008,26.1448889 C42.3008,24.8547556 41.7987556,24.4512 41.2677333,24.0234667 L41.2112,23.9770667 C40.8588444,23.6924444 40.4593778,23.3696 40.2238222,22.8394667 C39.5790222,21.3900444 39.4732444,17.6979556 40.2231111,16.7607111 C40.5969778,16.2936889 41.5994667,14.7232 41.3114667,13.6679111 C41.2010667,13.2650667 40.9472,12.9665778 40.5344,12.7550222 C40.0972444,12.5312 39.5077333,12.4177778 38.7802667,12.4177778 C37.3536,12.4177778 35.7694222,12.8522667 34.9532444,13.1109333 C32.0343111,14.0360889 28.5121778,16.7034667 27.5018667,17.4990222 C27.4730667,17.5212444 27.4563556,17.5342222 27.4531556,17.5363556 L26.8067556,17.9856 L27.2108444,17.3095111 C27.2364444,17.2673778 29.7948444,13.0597333 34.3701333,11.5169778 C35.2604444,11.2168889 37.0090667,10.7132444 38.7278222,10.7132444 C39.7511111,10.7132444 40.6184889,10.8919111 41.3066667,11.2439111 C42.1447111,11.6725333 42.7118222,12.3564444 42.9479111,13.2209778 C43.5256889,15.3402667 41.6437333,17.6999111 41.5795556,17.7752889 C41.3601778,18.1669333 41.2673778,21.0119111 41.7735111,22.1505778 C41.8432,22.3077333 42.0343111,22.4622222 42.2768,22.6574222 C42.3525333,22.7187556 42.4366222,22.7824 42.5271111,22.8504889 C43.2423111,23.3902222 44.3230222,24.2056889 44.3230222,26.0853333 C44.3230222,28.6572444 41.7164444,30.0517333 39.6224,31.1729778 C39.2784,31.3578667 38.9500444,31.5328 38.6544,31.7036444 L38.6544,31.7036444 Z" id="Shape" fill="#463014"></path>
                                    <path d="M35.5448889,11.6293333 C35.1303111,10.9271111 34.0700444,9.5712 31.6263111,8.37973333 C28.8992,7.05048889 25.7429333,6.37582222 22.2437333,6.37422222 L22.2437333,6.37351111 L22.2369778,6.37351111 L22.2302222,6.37351111 L22.2302222,6.37386667 C18.7304889,6.37564444 15.5736889,7.05031111 12.8472889,8.37937778 C10.4035556,9.57102222 9.34364444,10.9267556 8.92871111,11.6289778 L8.75075556,11.8645333 L10.8433778,12.3303111 L10.9096889,12.2465778 L10.9447111,12.1697778 C10.9770667,12.0314667 11.2576,11.2848 13.5907556,10.1470222 C16.0849778,8.93048889 18.9941333,8.31377778 22.2366222,8.31271111 C25.4794667,8.31377778 28.3873778,8.93048889 30.8814222,10.1470222 C33.2147556,11.2848 33.4961778,12.0314667 33.5281778,12.1697778 L33.5630222,12.2465778 L33.6286222,12.3303111 L35.7219556,11.8645333 L35.5448889,11.6293333 L35.5448889,11.6293333 Z" id="Shape" fill="#463014"></path>
                                    <g transform="translate(28.444444, 2.311111)" id="Shape" fill="#463014">
                                        <path d="M9.83271111,9.6208 C10.9532444,8.6912 10.1187556,7.82844444 10.2072889,6.77226667 C10.2545778,6.21031111 10.2990222,5.68 10.4844444,5.38755556 C11.5157333,3.75928889 13.9480889,3.26524444 13.9731556,3.26008889 L15.1150222,3.03644444 L14.3591111,2.15235556 C14.2611556,2.03786667 11.1575111,-0.923377778 6.35395556,0.6272 C2.99484444,1.71075556 0.507733333,5.38506667 0.415288889,5.53351111 L2.0992,6.32568889 C2.11964444,6.2944 4.08604444,2.84071111 6.96835556,1.91128889 C9.29813333,1.15946667 11.4455111,1.87466667 12.3648,2.34346667 C11.3875556,2.73386667 10.1086222,3.4448 9.33831111,4.66097778 C8.97493333,5.23537778 8.91413333,5.95857778 8.85511111,6.65884444 C8.77706667,7.58595556 8.70328889,8.46115556 8.0208,9.02791111 L9.83271111,9.6208 L9.83271111,9.6208 Z"></path>
                                        <path d="M7.67608889,9.0928 L7.91182222,8.89653333 C8.53937778,8.376 8.60977778,7.53528889 8.68551111,6.6416 C8.74631111,5.92248889 8.80906667,5.17848889 9.19431111,4.57013333 C9.90222222,3.45297778 11.0229333,2.75288889 11.9461333,2.33671111 C11.3934222,2.10257778 10.3548444,1.7536 9.07413333,1.7536 C8.36675556,1.7536 7.67644444,1.86062222 7.01973333,2.07253333 C4.34613333,2.93475556 2.45688889,6.05066667 2.24302222,6.41617778 L2.16284444,6.54293333 L0.170133333,5.60586667 L0.271466667,5.44408889 C0.294933333,5.4064 2.79573333,1.5968 6.3024,0.466133333 C7.24017778,0.1632 8.18257778,0.0103111111 9.10346667,0.0103111111 C12.4782222,0.0103111111 14.4711111,2.02222222 14.4881778,2.04248889 L15.4334222,3.14755556 L14.0072889,3.4272 C13.9836444,3.432 11.6110222,3.92835556 10.6284444,5.47893333 C10.4656,5.73671111 10.4229333,6.2464 10.3767111,6.78755556 C10.3498667,7.10933333 10.4174222,7.42293333 10.4832,7.72604444 C10.6257778,8.38328889 10.7729778,9.06311111 9.94168889,9.75217778 L9.86951111,9.81208889 L7.67608889,9.0928 L7.67608889,9.0928 Z"></path>
                                    </g>
                                    <g transform="translate(32.000000, 5.155556)" id="Shape" fill="#463014">
                                        <path d="M1.82595556,5.00835556 C1.82666667,5.00462222 2.27893333,3.02826667 3.53297778,2.03057778 C5.30151111,0.623644444 7.46133333,1.37208889 7.48142222,1.37866667 L7.79591111,0.409955556 C7.69102222,0.376 5.22293333,-0.401777778 2.94737778,1.19733333 C0.658844444,2.80551111 0.384888889,4.26328889 0.360355556,4.42435556 L1.82595556,5.00835556 L1.82595556,5.00835556 Z"></path>
                                        <path d="M0.173333333,4.53244444 L0.193066667,4.39946667 C0.217955556,4.23128889 0.504533333,2.7072 2.84995556,1.05831111 C3.81493333,0.380266667 4.9712,0.0215111111 6.19377778,0.0215111111 C7.12106667,0.0215111111 7.77617778,0.225422222 7.84871111,0.248711111 L8.00977778,0.3008 L7.58933333,1.59306667 L7.42702222,1.5392 C7.3664,1.51875556 6.82097778,1.34328889 6.08711111,1.34328889 C5.14666667,1.34328889 4.32302222,1.6192 3.63964444,2.16373333 C2.44035556,3.11751111 1.99644444,5.02613333 1.99235556,5.04497778 L1.94826667,5.23911111 L0.173333333,4.53244444 L0.173333333,4.53244444 Z M7.37155556,1.16906667 L7.58044444,0.525688889 C7.33404444,0.463111111 6.8352,0.361422222 6.19377778,0.361422222 C5.02506667,0.361422222 3.96568889,0.6896 3.04551111,1.33635556 C1.12053333,2.68942222 0.660444444,3.912 0.556088889,4.31946667 L1.71111111,4.77937778 C1.86222222,4.24231111 2.36248889,2.74524444 3.42773333,1.8976 C4.16284444,1.31342222 5.08213333,1.00444444 6.08693333,1.00444444 C6.66471111,1.00444444 7.13013333,1.10417778 7.37155556,1.16906667 L7.37155556,1.16906667 Z"></path>
                                    </g>
                                    <path d="M26.3541333,52.0104889 C25.48,51.0759111 24.9628444,50.0702222 24.8378667,49.7612444 C24.7664,49.5852444 24.6849778,49.2497778 24.9413333,48.9863111 C25.1411556,48.7822222 25.4874667,48.6775111 25.9717333,48.6775111 L26.7169778,48.6775111 C27.4936889,48.6775111 28.4019556,48.6775111 28.9420444,48.6780444 L29.3950222,48.6787556 C30.0312889,48.6787556 30.3447111,48.8608 30.4956444,49.0133333 C30.7150222,49.2353778 30.7493333,49.5443556 30.5982222,49.9310222 C30.1934222,50.9642667 29.2752,51.8074667 29.0037333,52.0412444 C28.6481778,52.3482667 28.1377778,52.5301333 27.6364444,52.5301333 L27.6364444,52.5301333 C27.1224889,52.5301333 26.6672,52.3454222 26.3541333,52.0104889 L26.3541333,52.0104889 Z" id="Shape" fill="#463014"></path>
                                    <path d="M27.1107556,26.2332444 L28.9198222,26.1168 C28.9198222,26.1168 28.4577778,26.9324444 28.1580444,27.9873778 C27.8195556,29.1806222 28.4675556,30.9244444 28.4675556,30.9244444 C28.4675556,30.9244444 26.0538667,28.192 27.1107556,26.2332444 L27.1107556,26.2332444 Z" id="Shape" fill="#463014"></path>
                                    <path d="M22.2373333,19.7708444 C21.0837333,19.7708444 19.5795556,19.7392 18.4510222,18.9281778 C18.4510222,18.9281778 19.9287111,21.5185778 22.2353778,21.5185778 L22.2373333,21.1907556 L22.2392889,21.5185778 C24.5461333,21.5185778 26.0236444,18.9281778 26.0236444,18.9281778 C24.8951111,19.7392 23.3898667,19.7708444 22.2373333,19.7708444 L22.2373333,19.7708444 Z" id="Shape" fill="#E78724"></path>
                                    <path d="M25.4136889,19.7584 C24.2565333,20.4586667 23.2231111,20.7013333 22.2373333,20.7228444 C21.2513778,20.7013333 20.2183111,20.4586667 19.0609778,19.7584 C19.0609778,19.7584 20.7461333,21.8147556 22.2288,21.8305778 L22.2288,21.8318222 C22.2314667,21.8318222 22.2341333,21.8311111 22.2371556,21.8311111 C22.2398222,21.8311111 22.2424889,21.8318222 22.2455111,21.8318222 L22.2455111,21.8305778 C23.7278222,21.8147556 25.4136889,19.7584 25.4136889,19.7584 L25.4136889,19.7584 Z" id="Shape" fill="#463014"></path>
                                    <path d="M29.3701333,57.3096889 L29.2410667,55.6323556 C34.6748444,55.2144 36.3870222,50.0069333 36.3959111,49.4588444 L38.0784,49.4588444 C38.0791111,50.7265778 35.8117333,56.8145778 29.3701333,57.3096889 L29.3701333,57.3096889 Z" id="Shape" fill="#463014"></path>
                                    <path d="M31.1802667,46.4028444 C31.2814222,45.8209778 31.2912,45.2691556 31.1685333,44.7269333 C31.6588444,44.3589333 32.5367111,44.2222222 33.1959111,44.0085333 C33.7349333,43.6673778 36.4940444,44.3582222 38.4952889,41.9363556 C41.0026667,38.9036444 40.4743111,37.0929778 40.4743111,37.0929778 C41.1176889,37.8072889 41.7402667,37.5351111 42.7208889,40.8656 C43.7022222,44.1968 42.2595556,46.5191111 39.5720889,48.8504889 C38.3025778,49.9518222 36.5075556,50.4055111 34.9637333,50.5792 C35.4808889,50.0599111 34.0803556,50.008 33.1155556,49.6467556 C33.1927111,48.8673778 33.0631111,48.1107556 32.4821333,47.5015111 C32.1324444,47.1342222 31.6808889,46.9146667 31.2135111,46.7397333 C31.1872,46.6792889 31.1646222,46.6234667 31.1404444,46.5655111 C31.1559111,46.5125333 31.1704889,46.4590222 31.1802667,46.4028444 L31.1802667,46.4028444 Z" id="Shape" fill="#FFFFFF"></path>
                                    <path d="M33.1274667,49.6264889 C33.184,49.4629333 33.2254222,49.2961778 33.2668444,49.1283556 C33.3121778,48.9450667 33.5344,48.4257778 33.2600889,49.0186667 C33.3304889,48.8668444 33.3765333,48.7104 33.4104889,48.5527111 C37.7628444,48.5472 41.5493333,45.5589333 40.8170667,39.2764444 C41.3868444,38.52 42.1852444,40.8017778 42.1852444,40.8017778 C42.1852444,40.8017778 44.3642667,47.1285333 38.7368889,49.5806222 C36.8618667,50.3984 35.2049778,50.9845333 34.8138667,50.7479111 C33.9987556,50.9134222 33.2636444,50.3456 32.9886222,49.9722667 C33.04,49.8576 33.0881778,49.7427556 33.1274667,49.6264889 L33.1274667,49.6264889 Z" id="Shape" fill="#C9C9C9"></path>
                                    <path d="M31.2581333,45.4919111 C31.2520889,44.9616 31.1431111,44.448 30.8874667,43.9361778 C30.8693333,43.9009778 30.8485333,43.8672 30.8295111,43.8328889 C32.5041778,43.8184889 34.4332444,43.6581333 36.0757333,43.0007111 C37.8808889,42.2785778 40.1392,39.808 40.5274667,36.9052444 C40.5274667,36.9052444 43.9274667,39.5288889 42.9283556,45.1445333 C41.9898667,50.4177778 37.5777778,52.1368889 32.5454222,52.4277333 C32.5427556,52.3936 33.1116444,51.2188444 32.9317333,50.4997333 C35.7886222,50.7073778 38.9841778,49.6033778 40.5276444,47.0650667 C41.9390222,44.7418667 41.5431111,40.7754667 40.9626667,40.1943111 C39.5473778,44.6616889 34.4524444,45.5697778 31.2581333,45.4919111 L31.2581333,45.4919111 Z" id="Shape" fill="#463014"></path>
                                    <g transform="translate(10.311111, 45.333333)" id="Shape" fill="#463014">
                                        <path d="M22.9792,1.48124444 C22.3779556,0.831288889 21.2725333,0.0565333333 18.7237333,0.0565333333 C18.7237333,0.0565333333 13.8913778,0.0536888889 11.9347556,0.0524444444 L11.9347556,0.0524444444 L11.9264,0.0524444444 L11.9180444,0.0524444444 L11.9180444,0.0524444444 C9.9616,0.0538666667 5.128,0.0565333333 5.128,0.0565333333 C2.57991111,0.0565333333 1.47448889,0.831466667 0.872888889,1.48124444 C-0.00337777778,2.4272 -0.1408,3.74311111 0.465422222,5.38791111 C2.07626667,9.76586667 4.33991111,14.2136889 11.9176889,14.2199111 L11.9176889,14.2206222 C11.9205333,14.2206222 11.9230222,14.2199111 11.9260444,14.2199111 C11.9287111,14.2199111 11.9313778,14.2206222 11.9344,14.2206222 L11.9344,14.2199111 C19.5114667,14.2133333 21.7751111,9.76586667 23.3864889,5.38791111 C23.9927111,3.74311111 23.8549333,2.4272 22.9792,1.48124444 L22.9792,1.48124444 Z M21.7994667,5.08088889 C21.032,7.27928889 18.9694222,12.6005333 11.9258667,12.6097778 C4.88142222,12.6005333 2.81955556,7.27946667 2.05208889,5.08088889 C1.62737778,3.86115556 1.65973333,2.95857778 2.15146667,2.39786667 C2.48728889,2.01457778 3.25884444,1.55715556 5.01724444,1.55715556 L6.85422222,1.55644444 C8.20942222,1.5552 9.91093333,1.55377778 11.9260444,1.55306667 C13.9404444,1.55377778 15.6428444,1.5552 16.9976889,1.55644444 L18.8339556,1.55715556 C20.5928889,1.55715556 21.3642667,2.0144 21.7002667,2.39786667 C22.1914667,2.95911111 22.2241778,3.86115556 21.7994667,5.08088889 L21.7994667,5.08088889 Z"></path>
                                    </g>
                                    <path d="M30.7312,42.2936889 C31.6368,44.9512889 33.4864,47.1020444 33.4864,47.1020444 C33.4864,47.1020444 30.9420444,46.9863111 30.8014222,46.536 C30.6981333,46.2040889 28.5043556,41.0689778 27.6624,35.0535111 C28.4538667,36.3546667 30.6535111,42.0661333 30.7312,42.2936889 L30.7312,42.2936889 Z" id="Shape" fill="#463014"></path>
                                </g>
                                <g id="Group" transform="translate(0.000000, 62.577778)" fill="#463014">
                                    <path d="M11.0629333,1.02008889 C10.7240889,0.815644444 10.3443556,0.636266667 9.93422222,0.487466667 C9.52693333,0.339733333 9.0768,0.222044444 8.59555556,0.137422222 C8.1136,0.0522666667 7.59342222,0.0096 7.04888889,0.0096 C5.99395556,0.0096 5.02311111,0.167466667 4.16373333,0.478755556 C3.30151111,0.792 2.5552,1.23715556 1.94542222,1.80213333 C1.33333333,2.36817778 0.856533333,3.05084444 0.528,3.83182222 C0.200177778,4.60995556 0.0343111111,5.47377778 0.0343111111,6.40124444 C0.0343111111,7.31271111 0.208355556,8.17013333 0.551466667,8.94915556 C0.8944,9.72782222 1.37493333,10.4099556 1.97884444,10.9776 C2.58186667,11.5445333 3.30435556,11.9953778 4.12817778,12.3166222 C4.95004444,12.6369778 5.85546667,12.8001778 6.81991111,12.8001778 C7.34951111,12.8001778 7.85155556,12.7752889 8.31253333,12.7248 C8.77528889,12.6746667 9.2192,12.5943111 9.63235556,12.4865778 C10.0449778,12.3792 10.44,12.2398222 10.8067556,12.0712889 C11.1733333,11.9036444 11.5303111,11.7000889 11.8673778,11.4677333 C11.9290667,11.4257778 11.9653333,11.3560889 11.9653333,11.2816 L11.9653333,6.18524444 C11.9653333,6.0608 11.8643556,5.95928889 11.7395556,5.95928889 L7.17244444,5.95928889 C7.04746667,5.95928889 6.94631111,6.06062222 6.94631111,6.18524444 L6.94631111,7.41048889 L6.94631111,7.72675556 L6.94631111,8.22453333 C6.94631111,8.34968889 7.04746667,8.45066667 7.17244444,8.45066667 L8.81564444,8.45066667 L8.81564444,9.89831111 C8.58773333,9.97937778 8.34648889,10.0467556 8.09546667,10.0988444 C7.79537778,10.1617778 7.44337778,10.1937778 7.04888889,10.1937778 C6.53937778,10.1937778 6.06382222,10.1080889 5.63697778,9.93973333 C5.21333333,9.77297778 4.84248889,9.52711111 4.53564444,9.20977778 C4.22666667,8.8912 3.98026667,8.49386667 3.80444444,8.02773333 C3.62666667,7.5584 3.53653333,7.0112 3.53653333,6.40088889 C3.53653333,5.84977778 3.61831111,5.34471111 3.77884444,4.89937778 C3.93831111,4.4576 4.16764444,4.07448889 4.45902222,3.76231111 C4.74933333,3.45084444 5.10737778,3.20568889 5.52195556,3.03395556 C5.93884444,2.86062222 6.41706667,2.77386667 6.94364444,2.77386667 C7.23413333,2.77386667 7.49831111,2.78684444 7.72853333,2.81333333 C7.95733333,2.83928889 8.17706667,2.88266667 8.38133333,2.93902222 C8.58666667,2.99697778 8.79022222,3.072 8.98631111,3.16266667 C9.19235556,3.25813333 10.1512889,3.80426667 10.3736889,3.92924444 C10.5258667,4.0144 10.6193778,4.01973333 10.7210667,3.87591111 L12.0133333,1.98915556 C12.0789333,1.89653333 12.0645333,1.76764444 11.9790222,1.69155556 C11.7098667,1.45102222 11.4016,1.2256 11.0629333,1.02008889 L11.0629333,1.02008889 Z" id="Shape"></path>
                                    <path d="M22.4024889,8.11751111 C22.2615111,7.89973333 22.0922667,7.71164444 21.8997333,7.55822222 C21.8387556,7.50968889 21.7768889,7.46382222 21.7128889,7.42044444 C21.9763556,7.29902222 22.2193778,7.15715556 22.4384,6.99857778 C22.7758222,6.75395556 23.0652444,6.47182222 23.2981333,6.15893333 C23.5326222,5.84426667 23.7116444,5.49742222 23.8304,5.12782222 C23.9489778,4.7584 24.0087111,4.36266667 24.0087111,3.94844444 C24.0087111,3.40622222 23.9073778,2.89671111 23.7079111,2.43342222 C23.5050667,1.96337778 23.1776,1.55111111 22.7351111,1.20853333 C22.2986667,0.871644444 21.7322667,0.6064 21.0519111,0.419377778 C20.3799111,0.235733333 19.5605333,0.142933333 18.6161778,0.142933333 L14.4369778,0.142933333 C14.3121778,0.142933333 14.2112,0.243911111 14.2112,0.368711111 L14.2112,12.4419556 C14.2112,12.5660444 14.3121778,12.6677333 14.4369778,12.6677333 L17.4170667,12.6677333 C17.5418667,12.6677333 17.6428444,12.5662222 17.6428444,12.4419556 L17.6428444,8.20071111 L18.1752889,8.20071111 C18.4128,8.20071111 18.5397333,8.24142222 18.6037333,8.27502222 C18.6928,8.32177778 18.7740444,8.40551111 18.8464,8.5232 L20.9804444,12.0296889 C21.2405333,12.4535111 21.6675556,12.6677333 22.2483556,12.6677333 L24.9464889,12.6677333 C24.9495111,12.6680889 24.9525333,12.6677333 24.9539556,12.6677333 C25.0792889,12.6677333 25.1800889,12.5662222 25.1800889,12.4419556 C25.1800889,12.3770667 25.1528889,12.3184 25.1091556,12.2773333 L22.4024889,8.11751111 L22.4024889,8.11751111 Z M20.5370667,4.82044444 C20.4664889,5.0176 20.3553778,5.18506667 20.1989333,5.33297778 C20.04,5.48124444 19.8321778,5.6 19.5797333,5.68515556 C19.3196444,5.77351111 18.9955556,5.81831111 18.6163556,5.81831111 L17.6428444,5.81831111 L17.6428444,2.69048889 L18.6163556,2.69048889 C19.3290667,2.69048889 19.8551111,2.82453333 20.1797333,3.08782222 C20.4944,3.34346667 20.6471111,3.69244444 20.6471111,4.15537778 C20.6476444,4.39377778 20.6103111,4.61706667 20.5370667,4.82044444 L20.5370667,4.82044444 Z" id="Shape"></path>
                                    <path d="M37.3781333,0.142933333 L34.3982222,0.142933333 C34.2730667,0.142933333 34.1724444,0.244088889 34.1724444,0.368888889 L34.1724444,7.51964444 C34.1724444,7.91804444 34.1182222,8.27662222 34.0122667,8.58613333 C33.9082667,8.888 33.7571556,9.14631111 33.5632,9.35431111 C33.3696,9.56017778 33.1287111,9.72142222 32.8467556,9.83271111 C32.2736,10.0588444 31.4433778,10.0588444 30.8700444,9.83271111 C30.5888,9.72142222 30.3484444,9.55946667 30.1550222,9.35057778 C29.9605333,9.14008889 29.8090667,8.88035556 29.7050667,8.57706667 C29.5994667,8.26933333 29.5452444,7.91022222 29.5452444,7.51111111 L29.5452444,0.368355556 C29.5452444,0.243911111 29.4442667,0.142577778 29.3194667,0.142577778 L26.3393778,0.142577778 C26.2145778,0.142577778 26.1136,0.243733333 26.1136,0.368355556 L26.1136,7.51911111 C26.1136,8.28604444 26.2469333,9.00088889 26.5093333,9.6432 C26.7731556,10.2896 27.1591111,10.8545778 27.6568889,11.3219556 C28.1528889,11.7880889 28.7637333,12.1557333 29.4711111,12.4136889 C30.1740444,12.6696889 30.9768889,12.7996444 31.8586667,12.7996444 C32.7340444,12.7996444 33.5340444,12.6695111 34.2378667,12.4136889 C34.9452444,12.1555556 35.5548444,11.7880889 36.0515556,11.3219556 C36.5493333,10.8542222 36.9367111,10.2901333 37.2033778,9.64444444 C37.4691556,9.00071111 37.6037333,8.28551111 37.6037333,7.51928889 L37.6037333,0.368533333 C37.6037333,0.244088889 37.5031111,0.142933333 37.3781333,0.142933333 L37.3781333,0.142933333 Z" id="Shape"></path>
                                    <path d="M51.4138667,0.142933333 L48.7861333,0.142933333 C48.6615111,0.142933333 48.5605333,0.244088889 48.5605333,0.368888889 L48.5605333,6.75751111 C48.5605333,6.94862222 48.5658667,7.15164444 48.5770667,7.36693333 L42.9249778,0.650311111 C42.8337778,0.547022222 42.7530667,0.464888889 42.6821333,0.404088889 C42.5992889,0.333688889 42.5114667,0.278755556 42.4222222,0.240533333 C42.3328,0.2016 42.2323556,0.175644444 42.1221333,0.161777778 C42.0268444,0.149688889 41.9080889,0.143644444 41.768,0.143644444 L40.1982222,0.143644444 C40.0741333,0.143644444 39.9728,0.244622222 39.9728,0.369422222 L39.9728,12.4426667 C39.9728,12.5667556 40.0739556,12.6684444 40.1982222,12.6684444 L42.8259556,12.6684444 C42.9505778,12.6684444 43.0524444,12.5669333 43.0524444,12.4426667 L43.0524444,5.97155556 C43.0524444,5.81084444 43.0474667,5.64195556 43.0376889,5.46151111 L48.6472889,12.1230222 C48.8172444,12.3269333 49.0005333,12.4716444 49.1927111,12.5521778 C49.3784889,12.6293333 49.6039111,12.6684444 49.8616889,12.6684444 L51.4135111,12.6684444 C51.5376,12.6684444 51.6389333,12.5669333 51.6389333,12.4426667 L51.6389333,0.369422222 C51.6392889,0.244088889 51.5383111,0.142933333 51.4138667,0.142933333 L51.4138667,0.142933333 Z" id="Shape"></path>
                                    <path d="M63.7390222,0.142933333 L53.5290667,0.142933333 C53.4044444,0.142933333 53.3029333,0.244088889 53.3029333,0.368888889 L53.3029333,2.58933333 C53.3029333,2.71395556 53.4044444,2.81546667 53.5290667,2.81546667 L56.9182222,2.81546667 L56.9182222,12.4419556 C56.9182222,12.5660444 57.0195556,12.6677333 57.1443556,12.6677333 L60.1237333,12.6677333 C60.2485333,12.6677333 60.3498667,12.5662222 60.3498667,12.4419556 L60.3498667,2.81546667 L63.7384889,2.81546667 C63.8629333,2.81546667 63.9644444,2.71395556 63.9644444,2.58933333 L63.9644444,0.368888889 C63.9649778,0.244088889 63.8634667,0.142933333 63.7390222,0.142933333 L63.7390222,0.142933333 Z" id="Shape"></path>
                                </g>
                            </g>
                        </g>
                    </g>
                </g>
            </g>
        </g>
    </g>
</svg>