<?xml version="1.0" encoding="UTF-8" standalone="no"?>
<svg width="50px" height="71px" viewBox="0 0 50 71" version="1.1" xmlns="http://www.w3.org/2000/svg" xmlns:xlink="http://www.w3.org/1999/xlink" xmlns:sketch="http://www.bohemiancoding.com/sketch/ns">
    <!-- Generator: Sketch 3.3.3 (12081) - http://www.bohemiancoding.com/sketch -->
    <title>logo-html5</title>
    <desc>Created with Sketch.</desc>
    <defs></defs>
    <g id="ZFC-V2" stroke="none" stroke-width="1" fill="none" fill-rule="evenodd" sketch:type="MSPage">
        <g sketch:type="MSArtboardGroup" transform="translate(-257.000000, -1005.000000)" id="What">
            <g sketch:type="MSLayerGroup" transform="translate(-106.000000, 625.000000)">
                <g id="Group-Copy-+-Easy-to-use-HTML,-CS-+-Type-something" transform="translate(363.000000, 202.000000)" sketch:type="MSShapeGroup">
                    <g id="Group-Copy" transform="translate(0.000000, 175.000000)">
                        <g id="logo-html5" transform="translate(0.000000, 3.000000)">
                            <g id="Page-1">
                                <g id="Group">
                                    <path d="M4.59446309,65.0119294 L0.0525167785,13.9100411 L49.9602349,13.9100411 L45.4135906,65.0036823 L24.9758389,70.6872989 L4.59446309,65.0119294 L4.59446309,65.0119294 Z" id="Shape" fill="#E44F26"></path>
                                    <path d="M25.0063758,66.3430829 L41.5209732,61.750275 L45.4065436,18.0883046 L25.0063758,18.0883046 L25.0063758,66.3430829 L25.0063758,66.3430829 Z" id="Shape" fill="#F1662A"></path>
                                    <path d="M25.0063758,37.0413793 L16.7387584,37.0413793 L16.1676174,30.6234319 L25.0063758,30.6234319 L25.0063758,24.3557841 L24.9847315,24.3557841 L9.33942953,24.3557841 L9.48909396,26.0373563 L11.0246644,43.3085222 L25.0063758,43.3085222 L25.0063758,37.0413793 L25.0063758,37.0413793 Z" id="Shape" fill="#EBEBEB"></path>
                                    <path d="M25.0063758,53.3181773 L24.9790268,53.3259195 L18.0206376,51.4410304 L17.5756711,46.4425985 L14.1946309,46.4425985 L11.3038591,46.4425985 L12.1791946,56.2831034 L24.9775168,59.8472085 L25.0063758,59.8391297 L25.0063758,53.3181773 L25.0063758,53.3181773 Z" id="Shape" fill="#EBEBEB"></path>
                                    <path d="M4.69597315,0.0227216749 L7.87114094,0.0227216749 L7.87114094,3.16942118 L10.7756711,3.16942118 L10.7756711,0.0227216749 L13.9510067,0.0227216749 L13.9510067,9.55202381 L10.7758389,9.55202381 L10.7758389,6.36122742 L7.87147651,6.36122742 L7.87147651,9.55202381 L4.69597315,9.55202381 L4.69597315,0.0227216749 L4.69597315,0.0227216749 Z" id="Shape" fill="#010101"></path>
                                    <path d="M18.1261745,3.18271757 L15.3308725,3.18271757 L15.3308725,0.0227216749 L24.0979866,0.0227216749 L24.0979866,3.18271757 L21.3015101,3.18271757 L21.3015101,9.55202381 L18.1263423,9.55202381 L18.1263423,3.18271757 L18.1261745,3.18271757 L18.1261745,3.18271757 Z" id="Shape" fill="#010101"></path>
                                    <path d="M25.4894295,0.0227216749 L28.8003356,0.0227216749 L30.836745,3.37105501 L32.8714765,0.0227216749 L36.1833893,0.0227216749 L36.1833893,9.55202381 L33.0213087,9.55202381 L33.0213087,4.82877668 L30.8365772,8.21683087 L30.782047,8.21683087 L28.5961409,4.82877668 L28.5961409,9.55202381 L25.4892617,9.55202381 L25.4892617,0.0227216749 L25.4894295,0.0227216749 L25.4894295,0.0227216749 Z" id="Shape" fill="#010101"></path>
                                    <path d="M37.7635906,0.0227216749 L40.9395973,0.0227216749 L40.9395973,6.40212644 L45.404698,6.40212644 L45.404698,9.5518555 L37.7634228,9.5518555 L37.7634228,0.0227216749 L37.7635906,0.0227216749 L37.7635906,0.0227216749 Z" id="Shape" fill="#010101"></path>
                                    <path d="M24.9847315,37.0413793 L24.9847315,43.3085222 L32.6783557,43.3085222 L31.9531879,51.4368227 L24.9847315,53.3235632 L24.9847315,59.844179 L37.7934564,56.2831034 L37.8872483,55.2244417 L39.3555369,38.724298 L39.5078859,37.0413793 L37.8243289,37.0413793 L24.9847315,37.0413793 L24.9847315,37.0413793 Z" id="Shape" fill="#FFFFFF"></path>
                                    <path d="M24.9847315,24.3557841 L24.9847315,28.2484278 L24.9847315,30.6079475 L24.9847315,30.6234319 L40.0563758,30.6234319 L40.0765101,30.6234319 L40.2018456,29.214688 L40.4864094,26.0373563 L40.635906,24.3557841 L24.9847315,24.3557841 L24.9847315,24.3557841 Z" id="Shape" fill="#FFFFFF"></path>
                                </g>
                            </g>
                        </g>
                    </g>
                </g>
            </g>
        </g>
    </g>
</svg>