<?xml version="1.0" encoding="UTF-8" standalone="no"?>
<svg width="95px" height="72px" viewBox="0 0 95 72" version="1.1" xmlns="http://www.w3.org/2000/svg" xmlns:xlink="http://www.w3.org/1999/xlink" xmlns:sketch="http://www.bohemiancoding.com/sketch/ns">
    <!-- Generator: Sketch 3.3.3 (12081) - http://www.bohemiancoding.com/sketch -->
    <title>logo-sass</title>
    <desc>Created with Sketch.</desc>
    <defs></defs>
    <g id="ZFC-V2" stroke="none" stroke-width="1" fill="none" fill-rule="evenodd" sketch:type="MSPage">
        <g sketch:type="MSArtboardGroup" transform="translate(-405.000000, -1005.000000)" id="What" fill="#D0639C">
            <g sketch:type="MSLayerGroup" transform="translate(-106.000000, 625.000000)">
                <g id="Group-Copy-+-Easy-to-use-HTML,-CS-+-Type-something" transform="translate(363.000000, 202.000000)" sketch:type="MSShapeGroup">
                    <g id="Group-Copy" transform="translate(0.000000, 175.000000)">
                        <g id="logo-sass" transform="translate(148.789474, 3.500000)">
                            <path d="M80.8635499,40.619211 C77.5795536,40.6367675 74.7351959,41.4276695 72.3508893,42.6070515 C71.4788163,40.8605265 70.5962798,39.3243349 70.4480755,38.1819591 C70.2749988,36.8483555 70.0743054,36.0528062 70.2834039,34.4641173 C70.4925025,32.8754284 71.4083163,30.6256177 71.3949368,30.45711 C71.3815572,30.2886023 71.189612,29.4792832 69.2953747,29.4656855 C67.4011375,29.4519157 65.7810098,29.8312733 65.5902652,30.3331819 C65.3995207,30.8350906 65.0348419,31.964385 64.8080755,33.142218 C64.4761594,34.8656786 61.0262908,41.0119941 59.0672141,44.2277551 C58.4267105,42.9728114 57.8819222,41.866065 57.7683674,40.9909952 C57.5952908,39.6573915 57.3945974,38.8618422 57.6036959,37.2731533 C57.8127944,35.6844645 58.7287798,33.4346538 58.7152287,33.266146 C58.7018492,33.0976383 58.5099039,32.2884913 56.6156667,32.2747216 C54.7214295,32.2609518 53.1013017,32.6403093 52.9107287,33.142218 C52.7198127,33.6441266 52.5163747,34.8166238 52.1283674,35.951254 C51.7401886,37.0858843 47.1542579,47.3388658 45.953185,49.9966064 C45.3411558,51.3506926 44.8085463,52.4383334 44.4325463,53.1813854 C44.4313455,53.1796642 44.4299733,53.1772545 44.4299733,53.1772545 C44.4299733,53.1772545 44.4069879,53.2266536 44.3670207,53.310305 C44.0452251,53.9425103 43.8536229,54.292607 43.8536229,54.292607 C43.8536229,54.292607 43.8556813,54.2974265 43.8592835,54.3056883 C43.6038711,54.7700743 43.3304477,55.2014128 43.1949368,55.2014128 C43.1002506,55.2014128 42.9105353,53.9650583 43.2361047,52.2684487 C43.9184623,48.7117134 45.5579733,43.1647278 45.5415061,42.9738441 C45.533101,42.8757344 45.84632,41.9092677 44.4711412,41.4040887 C43.1343857,40.9130238 42.658382,41.7319817 42.5362506,41.7345635 C42.418236,41.7369732 42.3304112,42.023729 42.3304112,42.023729 C42.3304112,42.023729 43.8196594,35.7860166 39.4898273,35.7860166 C36.7828674,35.7860166 33.0319587,38.7575361 31.1840353,41.4507338 C30.0181266,42.0889634 27.5228382,43.4559587 24.8752287,44.9153838 C23.8585536,45.4759861 22.8209514,46.0488091 21.8368674,46.5927156 C21.7699696,46.5185309 21.7034149,46.444002 21.6346302,46.3701615 C16.3843528,40.7496797 6.67885284,36.7739987 7.0907032,29.2178294 C7.24045138,26.4707574 8.19194408,19.2373174 25.7397543,10.4633829 C40.1143784,3.27589957 51.6218309,5.253757 53.6105828,9.63719578 C56.4513382,15.8995217 47.4602725,27.5387763 32.532455,29.2178294 C26.8447689,29.857608 23.8499769,27.6456642 23.1050098,26.8218869 C22.3209331,25.9545626 22.2039477,25.9154908 21.9111412,26.0783185 C21.4341083,26.3433869 21.7363492,27.109159 21.9111412,27.5654552 C22.356955,28.7293463 24.1858382,30.793437 27.3041339,31.8203187 C30.0472871,32.7236165 36.7248893,33.219673 44.8004842,30.0853258 C53.8454112,26.5747192 60.9081047,16.8086717 58.8335864,8.6457713 C56.7239039,0.343451835 43.0052214,-2.38589158 30.0212141,2.24282149 C22.2940025,4.99746688 13.9286886,9.32083498 7.91406086,14.9661024 C0.762684952,21.6781839 -0.377836946,27.5203592 0.092163054,29.9613978 C1.76186378,38.6348129 13.6756777,44.2828343 18.4463492,48.4690209 C18.2110061,48.5991454 17.9900718,48.7215243 17.7893784,48.8328875 C15.3973528,50.020015 6.31588933,54.7890078 4.04427984,59.8280604 C1.46751342,65.5437258 4.45441488,69.6445398 6.43201707,70.1967082 C12.5588273,71.9072596 18.8461923,68.8304013 22.2250463,63.7732758 C25.6032141,58.7173552 25.1906777,52.1340212 23.6401923,49.1289378 C23.6209806,49.0915873 23.5997105,49.0550974 23.5798127,49.0179189 C24.1975025,48.6511263 24.8273711,48.2781373 25.4515791,47.9103119 C26.6689477,47.1930782 27.8638455,46.5240388 28.9009331,45.9577564 C28.320809,47.552986 27.8957506,49.4654369 27.6746448,52.2271393 C27.4149441,55.4714727 28.7398638,59.6654048 30.4740609,61.3151971 C31.2375536,62.0415533 32.156112,62.0587655 32.7382944,62.0587655 C34.7560353,62.0587655 35.6766521,60.3743766 36.6904112,58.3820609 C37.9338528,55.9387848 39.0369806,53.0946358 39.0369806,53.0946358 C39.0369806,53.0946358 37.6521959,60.7780034 41.4247178,60.7780034 C42.7992105,60.7780034 44.1821083,58.9896527 44.7979112,58.0777487 C44.799455,58.0875596 44.8004842,58.0930676 44.8004842,58.0930676 C44.8004842,58.0930676 44.8361631,58.0336854 44.90632,57.9145767 C45.0490353,57.695465 45.1298273,57.556046 45.1298273,57.556046 C45.1298273,57.556046 45.1325718,57.5417598 45.1370317,57.5164578 C45.689539,56.5537778 46.9147981,54.3590462 48.752601,50.7400026 C51.1269587,46.0639559 53.4045718,40.2061174 53.4045718,40.2061174 C53.4045718,40.2061174 53.6164149,41.638175 54.3102652,44.006578 C54.7185134,45.3999081 55.585612,46.9404027 56.270028,48.4175563 C55.719236,49.1843612 55.3806302,49.6246501 55.3806302,49.6246501 C55.3806302,49.6246501 55.3838893,49.6327398 55.389893,49.6475423 C54.9495682,50.2337909 54.4560682,50.8665125 53.9399258,51.4833989 C52.0659295,53.7232264 49.8337725,56.2806197 49.5347908,57.0190244 C49.1826339,57.8885863 49.2659988,58.528537 49.9462981,59.0430106 C50.4435718,59.4190978 51.3285098,59.4774473 52.2518711,59.4147947 C53.935809,59.301194 55.1207579,58.8822483 55.7055134,58.6268188 C56.6168674,58.303401 57.6781412,57.7947796 58.6740609,57.0603337 C60.5125499,55.7041821 61.6213382,53.7640194 61.5148163,51.1944055 C61.455809,49.778011 61.0057068,48.3745258 60.4363893,47.0493561 C60.6031193,46.808557 60.7705353,46.5658646 60.9382944,46.3197297 C63.8363419,42.0684808 66.0842798,37.3970814 66.0842798,37.3970814 C66.0842798,37.3970814 66.2961229,38.829139 66.9901448,41.1973698 C67.3412725,42.3962017 68.0340937,43.703987 68.657101,44.9864703 C65.9321302,47.208225 64.2420171,49.7897154 63.6552032,51.4833989 C62.5704295,54.6156806 63.4200317,56.0350011 65.0139149,56.3580747 C65.7358966,56.5043787 66.7554879,56.1723547 67.5225828,55.8466993 C68.4771631,55.5289616 69.6238601,55.0002018 70.6950828,54.2099883 C72.5335718,52.8538367 74.3010463,50.9549834 74.1945244,48.3851973 C74.1456375,47.215282 73.829674,46.0541449 73.4006704,44.9387924 C75.7105317,43.9733584 78.7012068,43.4363368 82.5102652,43.8826499 C90.6822616,44.8403384 92.2854076,49.9602886 91.9788784,52.1032113 C91.6723492,54.246134 89.958393,55.4241391 89.3851302,55.7797438 C88.812382,56.1355206 88.6374185,56.2587601 88.6854477,56.5233121 C88.7550901,56.9080055 89.0201083,56.893203 89.5088054,56.8105842 C90.1815572,56.6964672 93.8000426,55.0675017 93.9549368,51.1117868 C94.1515134,46.0899464 89.3566558,40.5737707 80.8635499,40.619211 L80.8635499,40.619211 Z M17.8749733,61.9277804 C15.168185,64.8908659 11.3865718,66.0106937 9.76490028,65.0672913 C8.01389298,64.0484994 8.70740028,59.6864037 12.0291339,56.5420735 C14.053736,54.6256637 16.667382,52.8607216 18.401236,51.7737692 C18.7955901,51.5353798 19.3753711,51.1856273 20.080028,50.7620343 C20.1966704,50.6950787 20.2627105,50.6580724 20.2627105,50.6580724 L20.259966,50.6537693 C20.3959915,50.5720112 20.5352762,50.4883598 20.6793638,50.4019544 C21.8879842,54.8776507 20.7160718,58.8178746 17.8749733,61.9277804 L17.8749733,61.9277804 Z M37.5943893,48.4760779 C36.6516448,50.7821726 34.6785025,56.6823531 33.477601,56.3663366 C32.4466886,56.0947276 31.8187068,51.6097366 33.2717616,47.195488 C34.0030061,44.9737332 35.5651558,42.3185745 36.4828565,41.2882504 C37.9600974,39.629852 39.5867433,39.0876667 39.9821266,39.7599764 C40.4859185,40.616457 38.1854915,47.0302505 37.5943893,48.4760779 L37.5943893,48.4760779 Z M53.886236,56.2763166 C53.4865645,56.4861337 53.1199988,56.6178073 52.9498382,56.5162551 C52.8249623,56.4413819 53.1146813,56.1651256 53.1146813,56.1651256 C53.1146813,56.1651256 55.1526631,53.9652304 55.9552652,52.9636507 C56.4220061,52.3810167 56.9635353,51.6896014 57.5534368,50.9162559 C57.5580682,50.9937109 57.5608127,51.0703053 57.5608127,51.145867 C57.554809,53.7815759 55.0176667,55.5609763 53.886236,56.2763166 L53.886236,56.2763166 Z M66.4369514,53.4053165 C66.1388273,53.1925734 66.1884003,52.5044284 67.168882,50.3611614 C67.5538017,49.5194833 68.4320499,48.1029168 69.9586923,46.7488306 C70.1357141,47.3058184 70.2434368,47.8395696 70.2405207,48.336831 C70.2207944,51.6529393 67.8629039,52.8913593 66.4369514,53.4053165 L66.4369514,53.4053165 Z" id="Sass-Logo"></path>
                        </g>
                    </g>
                </g>
            </g>
        </g>
    </g>
</svg>