<?xml version="1.0" encoding="UTF-8" standalone="no"?>
<svg width="295px" height="358px" viewBox="0 0 295 358" version="1.1" xmlns="http://www.w3.org/2000/svg" xmlns:xlink="http://www.w3.org/1999/xlink" xmlns:sketch="http://www.bohemiancoding.com/sketch/ns">
    <!-- Generator: Sketch 3.3.3 (12081) - http://www.bohemiancoding.com/sketch -->
    <title>yeti+screens</title>
    <desc>Created with Sketch.</desc>
    <defs></defs>
    <g id="ZFC-V2" stroke="none" stroke-width="1" fill="none" fill-rule="evenodd" sketch:type="MSPage">
        <g sketch:type="MSArtboardGroup" transform="translate(-1145.000000, -721.000000)" id="What">
            <g sketch:type="MSLayerGroup" transform="translate(-106.000000, 625.000000)">
                <g id="yeti+screens" transform="translate(1251.000000, 96.000000)" sketch:type="MSShapeGroup">
                    <g id="svg-screens" transform="translate(0.000000, 83.485819)">
                        <rect id="top-left" fill="#A2A2A1" x="38.8902978" y="0" width="199.815668" height="122.035073" rx="3"></rect>
                        <rect id="bottom-left" fill="#A2A2A1" x="0" y="83.1447747" width="187.746265" height="160.92537" rx="3"></rect>
                        <g id="imac" transform="translate(245.411190, 22.797761)" fill="#A2A2A1">
                            <rect id="Rectangle-221-Copy-2" x="0" y="0" width="319.168651" height="182.382086" rx="4"></rect>
                        </g>
                        <g id="screen-color" transform="translate(11.069403, 5.705224)" fill="#82B9C8">
                            <rect id="Rectangle-224" x="41.2313426" y="1" width="126.058207" height="69.7343272"></rect>
                            <rect id="Rectangle-224-Copy" x="1" y="89.5089537" width="191.7694" height="135.44552"></rect>
                            <rect id="Rectangle-224-Copy-2" x="243.7291" y="30.5029846" width="299.05298" height="135.44552"></rect>
                        </g>
                    </g>
                    <g id="yeti" transform="translate(30.532962, 0.250618)">
                        <path d="M283.738026,81.8965762 C291.353769,70.9269012 297.081501,64.1696042 297.081501,64.1696042 C287.812558,53.7123353 268.799342,55.6136569 268.799342,55.6136569 L279.969606,42.3044057 L261.194055,35.1744497 C264.046038,26.3808373 273.790311,18.5378856 273.790311,18.5378856 C238.140531,5.46629961 212.94802,21.8651985 212.94802,21.8651985 C215.087007,13.5469164 226.019606,0.712995602 226.019606,0.712995602 C191.082821,3.08964761 164.464319,30.8964761 164.464319,30.8964761 C163.988988,26.1431721 167.791632,12.8339208 167.791632,12.8339208 C167.791632,12.8339208 149.253746,26.1431721 138.796477,46.5823793 C135.212486,53.5868481 120.258592,104.572688 118.35727,115.980618 C118.35727,115.980618 114.079296,114.316962 109.325992,114.792292 C109.325992,114.792292 115.980618,124.061235 116.693614,128.339208 C117.406609,132.617182 109.801323,159.47335 106.94934,163.988988 C104.097358,168.504627 100.53238,171.118944 98.8687235,171.83194 C98.8687235,171.83194 101.483041,176.822909 104.335023,177.29824 C104.335023,177.29824 103.622027,193.221808 101.720706,196.549121 C99.8193843,199.876434 94.3530847,205.105068 91.7387674,206.768725 C91.7387674,206.768725 97.4427323,213.42335 101.245375,213.661015 C101.245375,213.661015 97.4427323,221.028637 96.0167411,222.929958 C94.5907499,224.83128 91.0257718,221.266302 91.0257718,221.266302 C91.0257718,221.266302 91.753978,227.324863 92.3719075,229.426774 C93.1647586,232.119996 91.9764326,235.526214 91.263437,237.427535 C90.5504414,239.328857 86.2724678,251.925113 85.7971374,257.866743 C85.321807,263.808373 86.7477982,268.324012 86.7477982,268.324012 C86.7477982,268.324012 88.4114546,264.996699 90.3127762,264.283703 C90.3127762,264.283703 90.3127762,276.642294 93.1647586,282.108593 C96.0167411,287.574893 100.294715,293.516523 101.958371,294.704849 C101.958371,294.704849 101.00771,290.426875 102.196036,288.525554 C102.196036,288.525554 105.198223,299.040813 119.545596,301.121809 C150.679737,305.637448 173.020266,311.341413 209.145377,290.426875 C242.7712,270.959243 238.140531,199.163438 249.07313,153.53172 C254.152511,132.331033 264.874063,111.544835 274.899732,95.3598344 C281.605694,86.9930687 291.536296,81.5990193 291.536296,81.5990193 C288.142437,81.1303435 285.098421,81.6132792 283.738026,81.8965762 L283.738026,81.8965762 Z" id="Shape" fill="#EAF7FE"></path>
                        <path d="M61.9507619,344.677285 C62.3547927,343.231329 62.6941786,341.723581 62.9470544,340.420225 C62.9793768,335.919797 63.8074024,330.237698 67.4788544,324.780905 C66.1773998,325.139304 64.7342967,325.634598 64.7342967,325.634598 C69.3345443,319.96961 73.9842263,316.937953 76.9959197,315.401685 C76.2334898,314.610735 73.9937329,314.25709 73.9937329,314.25709 C76.6707937,313.214215 84.7000749,312.026839 91.3898749,311.066672 L88.623452,309.439141 L100.523824,309.664447 C106.063324,308.162403 112.644749,307.019709 120.455378,306.368506 C119.862166,305.076558 119.14917,300.406912 119.14917,300.406912 C126.567177,300.127418 137.456045,302.682794 141.014369,303.258895 C142.192238,303.281711 143.401478,307.753619 144.620225,307.793547 C144.620225,307.793547 163.170469,297.29635 163.465174,315.832334 C163.686678,329.835568 162.807317,344.016575 162.363358,350.117916 C157.496926,349.369746 152.566799,349.051275 147.643327,348.936245 C140.919303,348.778435 134.166759,348.592106 127.441785,348.607316 C125.355084,348.61302 123.273137,348.659603 121.194042,348.729952 C111.781549,348.617774 92.5848556,349.444848 79.5921744,350.316604 L79.5712598,347.781192 L78.3249435,347.941854 L70.2890078,347.941854 L70.0998263,345.628896 C70.086517,345.190641 70.1264448,344.782808 70.0855663,344.500462 C67.3714298,344.519475 64.6629971,344.593626 61.9507619,344.677285 L61.9507619,344.677285 Z" id="Shape" fill="#A1D4E9"></path>
                        <path d="M70.0142668,344.413001 C68.8173848,344.421557 67.6214535,344.461485 66.4255223,344.508067 C66.7088192,321.182653 89.2385295,315.830433 89.2385295,315.830433 C69.657769,323.395792 69.8745196,341.727384 70.0142668,344.413001 L70.0142668,344.413001 Z" id="Shape" fill="#85C1CE"></path>
                        <path d="M75.3151514,339.148241 C76.6793497,335.251483 79.9553268,331.67985 81.0932678,330.516241 C88.5502511,320.028551 101.344244,319.025604 101.344244,319.025604 C78.1367127,324.465285 79.5712598,347.783093 79.5712598,347.783093 L78.3249435,347.941854 L75.8807946,347.941854 C75.97491,344.139211 76.4302765,341.624713 77.1499268,339.067435 L75.3151514,339.148241 L75.3151514,339.148241 Z" id="Shape" fill="#85C1CE"></path>
                        <path d="M137.242147,72.4745769 C115.689716,64.8825998 104.79134,44.1401317 104.79134,44.1401317 C104.79134,44.1401317 98.8373517,58.8791768 105.988222,75.2942369 C111.033379,86.8704335 123.198985,94.5261049 129.940121,98.0378459 C131.857604,89.3649674 134.065038,80.7576845 137.242147,72.4745769 L137.242147,72.4745769 Z" id="Shape" fill="#4F4E51"></path>
                        <path d="M137.242147,72.4745769 C115.689716,64.8825998 104.79134,44.1401317 104.79134,44.1401317 C104.79134,44.1401317 106.398908,72.2540236 133.237963,84.6877163 C134.39777,80.5599471 135.705879,76.4797109 137.242147,72.4745769 L137.242147,72.4745769 Z" id="Shape" fill="#5C5B5D"></path>
                        <g id="Group" transform="translate(61.792952, 161.612336)" fill="#A1D4E9">
                            <path d="M43.0174013,30.6588109 C43.0174013,30.6588109 40.0028559,27.1080928 35.5822832,22.6048126 C30.9012294,16.1773949 30.1834805,8.31828202 30.1834805,8.31828202 C28.7432294,10.1701693 28.3724717,14.5089852 28.2983201,15.6431235 C22.7778328,10.7310591 16.6004389,6.13461416 11.4469067,4.58979035 C14.0507667,5.86747847 15.9235684,6.89229082 15.9235684,6.89229082 C15.9235684,6.89229082 11.8319243,7.48740448 8.267897,7.51212166 L11.4079296,65.5955954 L31.6094717,74.8645382 C31.6094717,74.8645382 50.3850225,45.6317185 43.0174013,30.6588109 L43.0174013,30.6588109 Z" id="Shape"></path>
                            <path d="M11.4469067,4.58979035 C8.03593576,2.91662734 3.36819122,0.809012343 0,0 C0,0 3.32731281,3.08964761 3.08964761,5.94163002 C2.98507492,7.19745294 5.46344763,7.53113488 8.267897,7.51212166 L8.08061682,4.04030841 C9.13489965,4.04030841 10.2642847,4.23519388 11.4469067,4.58979035 L11.4469067,4.58979035 Z" id="Shape"></path>
                            <path d="M11.4469067,4.58979035 C10.263334,4.23519388 9.13489965,4.04030841 8.08061682,4.04030841 L8.267897,7.51212166 C11.8309737,7.48740448 15.9235684,6.89229082 15.9235684,6.89229082 C15.9235684,6.89229082 14.0507667,5.86747847 11.4469067,4.58979035 L11.4469067,4.58979035 Z" id="Shape"></path>
                        </g>
                        <path d="M156.859032,55.1383265 C169.361173,34.0127422 210.019034,15.625061 217.471264,12.3880609 C221.312884,6.23823619 226.019606,0.712995602 226.019606,0.712995602 C191.082821,3.08964761 164.464319,30.8964761 164.464319,30.8964761 C163.988988,26.1431721 167.791632,12.8339208 167.791632,12.8339208 C167.791632,12.8339208 149.253746,26.1431721 138.796477,46.5823793 C135.212486,53.5868481 120.258592,104.572688 118.35727,115.980618 C118.35727,115.980618 114.079296,114.316962 109.325992,114.792292 C109.325992,114.792292 115.980618,124.061235 116.693614,128.339208 C117.406609,132.617182 109.801323,159.47335 106.94934,163.988988 C104.097358,168.504627 100.53238,171.118944 98.8687235,171.83194 C98.8687235,171.83194 101.483041,176.822909 104.335023,177.29824 C104.335023,177.29824 103.622027,193.221808 101.720706,196.549121 C99.8193843,199.876434 94.3530847,205.105068 91.7387674,206.768725 C91.7387674,206.768725 97.2050671,214.136346 101.00771,214.374011 C101.00771,214.374011 97.4427323,221.028637 96.0167411,222.929958 C94.5907499,224.83128 91.0257718,221.266302 91.0257718,221.266302 C91.0257718,221.266302 91.753978,227.324863 92.3719075,229.426774 C93.1647586,232.119996 91.9764326,235.526214 91.263437,237.427535 C90.5504414,239.328857 86.2724678,251.925113 85.7971374,257.866743 C85.321807,263.808373 86.7477982,268.324012 86.7477982,268.324012 C86.7477982,268.324012 88.4114546,264.996699 90.3127762,264.283703 C90.3127762,264.283703 90.3127762,276.642294 93.1647586,282.108593 C96.0167411,287.574893 100.294715,293.516523 101.958371,294.704849 C101.958371,294.704849 101.00771,292.565862 102.196036,290.66454 C102.196036,290.66454 106.451194,299.318406 120.258592,303.736126 C132.141852,307.53877 141.806269,308.964761 154.64019,305.162118 C163.7903,302.191303 169.218574,293.121048 169.218574,293.121048 C109.959132,311.816743 93.4813287,271.572419 100.135954,245.904578 C103.33778,233.554543 117.644274,212.710355 117.644274,212.710355 C110.989649,214.611676 107.108101,208.512236 107.108101,208.512236 C107.108101,208.512236 110.277604,207.878146 115.664048,202.808272 C121.050492,197.738398 119.783261,170.168284 119.783261,170.168284 C117.330556,170.985852 114.883555,171.099931 114.244711,171.116092 C114.134435,171.14081 114.079296,171.118944 114.079296,171.118944 C114.079296,171.118944 114.140139,171.117994 114.244711,171.116092 C114.740956,171.008668 116.375142,169.982905 119.405849,162.013515 C118.635814,161.598077 117.892397,161.130351 117.144227,160.635057 C116.955045,160.50957 116.83241,160.277609 116.905611,160.047549 C118.78887,154.129685 118.07017,147.80589 119.456234,141.795812 C119.821288,140.214863 120.32799,137.766912 121.872814,136.840968 C123.438552,135.901715 125.241955,136.300993 127.01874,136.551016 C128.165237,132.047736 129.396343,126.9598 130.71586,121.208302 C142.59912,69.3972879 154.48238,40.4021334 154.48238,40.4021334 C152.581059,45.6317185 156.859032,55.1383265 156.859032,55.1383265 L156.859032,55.1383265 Z" id="Shape" fill="#CDEAF5"></path>
                        <g id="Group" transform="translate(0.000000, 145.451103)">
                            <g id="Shape" fill="#464745">
                                <g>
                                    <path d="M96.6622397,71.871858 C98.1234054,73.8026501 97.7393384,76.577629 95.809497,78.0387946 L60.2158059,104.986226 C58.2850138,106.448342 55.5100349,106.063324 54.0488693,104.133483 L1.21969781,34.3540294 C-0.241467844,32.4232373 0.14259912,29.6482584 2.07244055,28.1870928 L37.6661317,1.23966169 C39.5969237,-0.221503967 42.3719026,0.162562997 43.8330683,2.09240443 L96.6622397,71.871858 L96.6622397,71.871858 Z"></path>
                                </g>
                            </g>
                            <path d="M11.4989776,38.7086092 L45.7711684,12.8826611 L87.7383341,68.574971 L53.4661434,94.4009192 L11.4989776,38.7086092 L11.4989776,38.7086092 Z" id="Rectangle-219" fill="#A2A2A1"></path>
                        </g>
                        <path d="M77.2411902,191.320487 C58.7033046,205.342733 38.2640973,193.459473 38.2640973,193.459473 C40.8784145,187.755509 57.5149786,165.652645 69.873569,165.652645 C69.873569,165.652645 88.1737894,173.020266 77.2411902,191.320487 L77.2411902,191.320487 Z" id="Shape" fill="#A1D4E9"></path>
                        <path d="M65.8332606,207.48172 C41.8290753,200.351764 20.9145377,206.293394 20.9145377,206.293394 C11.0552345,208.667194 14.2418495,219.873584 18.6177412,228.390554 C18.5911227,228.393406 18.5626028,228.390554 18.5378856,228.396258 C18.5378856,228.396258 22.5781941,238.853527 22.5781941,241.705509 L25.3160972,238.576884 C30.8831668,244.875012 39.6653713,249.778521 52.5240093,241.943174 C67.7345822,232.674231 65.8332606,207.48172 65.8332606,207.48172 L65.8332606,207.48172 Z" id="Shape" fill="#A1D4E9"></path>
                        <ellipse id="Oval" fill="#CDEAF5" cx="186.487327" cy="159.668235" rx="10.2994591" ry="13.0354609"></ellipse>
                        <ellipse id="Oval" fill="#CDEAF5" cx="135.311355" cy="151.944116" rx="10.2994591" ry="13.0354609"></ellipse>
                        <ellipse id="Oval" fill="#FFFFFF" cx="185.537617" cy="156.067132" rx="10.1406988" ry="12.8339208"></ellipse>
                        <ellipse id="Oval" fill="#FFFFFF" cx="135.152594" cy="148.461846" rx="10.1406988" ry="12.8339208"></ellipse>
                        <path d="M140.696848,142.795907 C140.777654,143.110576 140.832793,143.439505 140.832793,143.787446 C140.832793,145.594653 139.654924,147.059621 138.202314,147.059621 C136.911317,147.059621 135.842774,145.901716 135.619369,144.375905 C134.791343,145.462511 134.280838,146.925578 134.280838,148.54075 C134.280838,151.888027 136.461654,154.601213 139.152975,154.601213 C141.844296,154.601213 144.025112,151.888027 144.025112,148.54075 C144.025112,145.865591 142.630492,143.599216 140.696848,142.795907 L140.696848,142.795907 Z" id="Shape" fill="#4F4E51"></path>
                        <path d="M225.62318,150.679737 C221.741632,148.303085 216.988328,146.955999 216.988328,146.955999 C212.54589,145.609863 204.73336,143.66386 195.144995,142.718904 C182.667572,141.492551 171.800568,141.615186 165.308506,141.688387 C163.370108,141.709302 161.84715,141.728315 160.691146,141.707401 L159.427718,141.690289 C156.837167,141.655114 155.867493,141.642756 154.470972,141.219712 C153.757026,141.002961 152.922346,140.681638 151.628497,140.160675 C151.226367,139.999063 150.796668,139.824141 150.337499,139.635911 C148.031196,138.691904 145.165905,137.516888 141.514416,136.411269 C137.547309,135.209634 133.610622,134.378756 129.482853,133.872054 C120.084621,132.714149 113.30831,132.881466 110.106485,133.084907 C109.333598,133.134341 108.722323,133.411934 108.239387,133.93765 C107.460796,134.781837 107.187005,136.02435 106.94934,137.371437 L106.307644,141.601877 C106.121315,143.401478 107.353371,144.410129 108.282167,145.237204 C108.947629,145.834219 109.186245,146.515843 109.171985,147.755505 C109.170084,148.005528 109.184344,153.898675 109.728122,157.504531 C110.198699,160.575165 111.961224,163.046884 118.874429,165.140239 C120.175884,165.534763 121.676977,165.912175 123.305459,166.26487 C134.955808,168.786023 139.324094,168.226084 143.295955,166.309551 C147.032052,164.507099 149.727175,156.675555 151.020074,152.912839 C151.203551,152.383321 151.473539,151.601878 151.540085,151.467835 C151.715007,151.135104 151.850001,150.816632 151.982143,150.493408 C152.328183,149.653024 152.329134,149.653024 153.237965,149.701507 C154.443403,149.770905 155.448252,149.924913 156.226843,150.159726 C157.349573,150.501013 157.591041,150.892685 157.639525,151.002962 C157.902858,151.630398 158.062569,153.355847 158.216576,155.027109 C158.324001,156.190718 158.435228,157.391402 158.597791,158.542653 L158.731834,159.537044 C159.175793,162.908087 159.846009,168.003629 162.179881,170.339403 C163.784596,171.946019 168.295482,174.063141 173.404333,175.611767 C176.848577,176.653692 180.302328,177.365737 183.392926,177.668997 C191.708356,178.484664 200.068467,178.50748 203.723758,177.723185 C207.442743,176.929383 208.649132,174.854091 210.095087,171.232073 C210.290923,170.740581 210.469647,170.289968 210.659779,169.826996 L210.729177,169.534193 C210.729177,169.534193 213.712351,160.22152 215.625081,152.911889 C219.817495,154.126833 224.039379,155.828516 224.039379,155.828516 L225.62318,150.679737 L225.62318,150.679737 Z M147.116661,147.528297 C146.808646,150.527631 145.82091,153.885365 144.00895,158.098694 C142.03728,162.673274 141.487798,162.823478 139.665381,163.316871 C137.487417,163.908182 130.87367,163.505102 123.984231,161.826235 C117.445586,160.226273 114.31411,157.755506 113.63819,156.269623 C113.057336,154.98528 113.386265,141.315728 113.916733,138.683349 C114.025109,138.137669 114.18482,137.997922 114.253267,137.93708 C115.124073,137.166094 118.259352,137.312496 121.211154,137.556815 C126.956948,138.030245 134.990031,140.318485 138.014083,141.177882 L138.543601,141.327136 C138.793625,141.398436 139.036994,141.469735 139.27561,141.541986 C144.558432,143.1448 147.344819,145.268576 147.116661,147.528297 L147.116661,147.528297 Z M210.427818,154.563187 C209.918264,157.120464 206.453105,168.883941 205.198233,171.354708 C204.269437,173.181878 202.022075,173.366307 195.658352,173.631541 L195.226752,173.648653 C188.993269,173.900578 178.186157,172.11999 172.385225,170.361268 C172.13425,170.285215 171.893733,170.211063 171.664624,170.135961 C166.305749,168.37914 165.786688,167.57393 164.447207,164.457664 C163.065897,161.233023 163.245572,152.404236 163.296907,150.666428 L163.298809,150.577066 C163.351095,148.740389 163.378664,147.82015 165.854185,147.13092 C169.182448,146.202125 183.317824,146.330464 189.027493,146.92938 C193.535526,147.405661 202.933759,149.458138 207.180361,150.745333 C207.844873,150.946873 208.334463,151.116091 208.633921,151.24443 C209.112103,151.449772 210.816638,152.620987 210.427818,154.563187 L210.427818,154.563187 Z" id="Shape" fill="#5C5B5D"></path>
                        <path d="M188.229888,149.450533 C188.310694,149.765202 188.365833,150.09413 188.365833,150.442072 C188.365833,152.249278 187.187964,153.714246 185.735354,153.714246 C184.444357,153.714246 183.375814,152.556342 183.152409,151.030531 C182.324383,152.117136 181.813878,153.580203 181.813878,155.195376 C181.813878,158.542653 183.994694,161.255839 186.686015,161.255839 C189.377336,161.255839 191.558152,158.542653 191.558152,155.195376 C191.558152,152.520217 190.163532,150.253841 188.229888,149.450533 L188.229888,149.450533 Z" id="Shape" fill="#4F4E51"></path>
                        <path d="M179.833652,109.168183 C179.833652,109.168183 197.85628,101.483041 205.818064,109.801323 C205.818064,109.801323 205.818064,101.562896 194.709592,101.969779 C186.963608,102.038227 183.636295,105.048019 179.833652,109.168183 L179.833652,109.168183 Z" id="Shape" fill="#A1D4E9"></path>
                        <path d="M183.596367,99.8193843 C183.596367,99.8193843 189.419165,94.1154195 199.757601,95.5414107 C199.757601,95.5414107 195.693526,92.0838573 190.607491,93.4024238 C187.399011,94.2342521 185.260024,96.2544063 183.596367,99.8193843 L183.596367,99.8193843 Z" id="Shape" fill="#A1D4E9"></path>
                        <path d="M129.171037,114.673459 C129.171037,114.673459 138.439979,118.000772 142.480288,124.2989 C142.480288,124.2989 143.48989,118.87538 138.321147,115.980618 C134.359743,113.761776 132.617182,114.237106 129.171037,114.673459 L129.171037,114.673459 Z" id="Shape" fill="#A1D4E9"></path>
                        <path d="M145.807601,114.435794 C145.807601,114.435794 143.193283,110.276653 138.91531,110.038988 C138.91531,110.038988 142.44036,108.552154 144.143944,110.038988 C144.912078,110.709204 146.164098,112.059142 145.807601,114.435794 L145.807601,114.435794 Z" id="Shape" fill="#A1D4E9"></path>
                        <path d="M150.045646,182.843444 C149.600737,182.675177 161.612336,185.497689 173.614429,186.92368 C173.614429,186.92368 174.605018,184.744766 175.713488,183.636295 C175.713488,183.636295 174.921588,187.438938 175.872248,188.389599 C175.872248,188.389599 169.534193,189.81559 163.513658,188.86493 C163.513658,188.86493 170.247189,188.785074 172.623841,187.993174 C172.623841,187.993174 160.542843,186.804848 150.045646,182.843444 L150.045646,182.843444 Z" id="Shape" fill="#5C5B5D"></path>
                        <path d="M248.818353,91.5068062 C249.653984,91.8490441 252.370973,92.8177675 252.370973,92.8177675 C276.628034,102.695133 301.186454,89.4438723 301.186454,89.4438723 C301.186454,89.4438723 297.891464,104.994782 282.790217,114.61642 C267.685167,124.236156 245.08796,119.317437 245.08796,119.317437 C243.369165,122.159913 242.65617,129.527534 242.65617,129.527534 C242.65617,129.527534 238.58449,120.360312 241.356617,106.43123 C243.295965,96.6707957 248.301194,91.2948089 248.818353,91.5068062" id="Shape" fill="#5C5B5D"></path>
                        <path d="M248.818353,91.5068062 C249.626415,91.8243269 252.370973,92.8177675 252.370973,92.8177675 C276.628034,102.695133 301.186454,89.4438723 301.186454,89.4438723 C301.186454,89.4438723 279.077887,118.54455 242.053451,103.526011 C242.053451,103.526011 242.998408,97.110001 248.818353,91.5068062" id="Shape" fill="#747F83"></path>
                        <path d="M102.087661,213.661015 C102.087661,213.661015 111.387976,215.324672 117.284925,212.235024 C117.284925,212.235024 118.646271,220.315641 126.130823,226.257271 C126.130823,226.257271 133.389119,214.611676 140.193949,212.94802 C140.193949,212.94802 140.607486,218.810745 140.381229,223.564049 C140.381229,223.564049 153.350143,224.355949 164.464319,215.087007 C164.464319,215.087007 161.928906,227.841072 135.785734,228.633923 C135.785734,228.633923 136.375144,222.415651 136.223989,221.147469 C136.223989,221.147469 130.655018,228.277425 126.912266,236.239209 C126.912266,236.239209 113.541222,227.207932 111.159817,218.414319 C111.159817,218.414319 110.025679,219.840311 99.8184336,218.176654 L102.087661,213.661015 L102.087661,213.661015 Z" id="Shape" fill="#CDEAF5"></path>
                        <path d="M55.1383265,205.184924 C55.1383265,205.184924 42.4622154,215.008102 33.7484585,217.860084 C33.7484585,217.860084 54.9795662,212.94802 61.7929522,209.779467 C61.7929522,209.779467 55.930227,224.19814 38.5017625,229.902105 C38.5017625,229.902105 54.9795662,228.317353 61.6341918,222.138058 C61.6341918,222.138058 54.6629961,244.003256 38.1851925,245.904578 C38.1851925,245.904578 47.8496102,247.488379 56.4055574,239.091192 C64.9615046,230.694005 66.7040659,213.898681 65.8332606,207.48172 C65.8332606,207.48172 59.2575398,205.502444 55.1383265,205.184924 L55.1383265,205.184924 Z" id="Shape" fill="#85C1CE"></path>
                        <path d="M77.9541858,191.241582 C77.9541858,191.241582 82.2312088,188.70712 84.2912907,186.489228 C84.2912907,186.489228 84.4500511,191.242532 80.0142678,193.776994 L77.9541858,191.241582 L77.9541858,191.241582 Z" id="Shape" fill="#85C1CE"></path>
                        <path d="M248.270773,204.644948 L243.725663,206.515849 L249.07313,208.654836 L248.270773,204.644948 Z" id="Shape" fill="#EAF7FE"></path>
                        <path d="M105.998679,308.370598 C105.998679,308.370598 121.446918,317.045378 143.610623,315.046138 L143.312116,307.381911 C143.312116,307.381911 130.71586,307.620526 118.99041,303.341602 L118.8326,306.112778 L115.029957,303.736126 L115.267622,306.706941 L105.998679,308.370598 L105.998679,308.370598 Z" id="Shape" fill="#85C1CE"></path>
                        <path d="M193.523168,324.382578 L190.702557,324.321735 C180.291871,323.821688 173.317823,322.408055 162.893827,322.883386 C156.243955,323.184745 149.036045,323.487055 141.945066,323.842602 C145.838972,320.957347 147.47506,318.675761 151.090423,314.60313 L152.581059,317.16326 C153.797905,315.459675 156.275327,310.442088 157.476962,308.150995 C163.759879,300.420222 168.266962,293.436667 168.266962,293.436667 L152.105728,299.140632 C151.361361,301.251099 149.966742,303.371073 148.214674,305.419747 C148.088236,305.722057 147.972255,306.04243 147.860077,306.370407 C146.447395,304.481444 144.606916,302.833949 144.183872,305.478688 C144.117326,305.892225 144.060286,306.327628 144.008,306.768734 C140.655019,311.842411 127.21933,320.208226 127.21933,320.208226 C126.32761,320.723484 125.803796,321.005831 125.803796,321.005831 L128.655778,321.798682 L128.105346,324.644009 C128.023589,324.649713 127.93898,324.654467 127.858174,324.660171 C127.673746,326.016764 127.42087,327.366702 127.102399,328.708084 C127.113807,329.402067 127.100497,329.839371 127.100497,329.839371 L126.804842,339.724342 C125.993928,340.931681 124.400621,343.006974 122.770237,343.449981 C122.770237,343.449981 124.333124,344.870269 125.872244,343.925312 L125.640282,344.969137 C125.640282,344.969137 124.578394,352.999369 131.205451,353.236084 L149.675839,353.895842 C150.751987,353.933869 151.400338,353.958586 151.400338,353.958586 L171.279606,354.66873 L171.441218,351.912764 L182.813023,352.719875 L184.720049,348.804103 L201.916552,349.3745 C204.440556,331.618057 199.746193,325.295212 193.523168,324.382578 L193.523168,324.382578 Z" id="Shape" fill="#CDEAF5"></path>
                        <path d="M204.404431,343.008875 C204.360701,341.314797 204.232362,339.422982 203.950015,337.505499 L205.340832,338.155751 C204.781843,334.501411 202.37382,331.021993 202.050595,330.570429 C200.389791,326.877112 197.625269,324.071712 193.05164,323.909149 L194.326476,322.201762 C189.939176,321.214976 187.718433,320.425927 180.436371,321.691257 C184.475729,320.428779 188.378191,317.650949 191.940317,314.253287 L193.459473,315.619386 L195.59846,310.866082 L194.798004,311.329054 C197.270672,308.621572 199.528492,305.7116 201.480199,302.943275 L203.679077,305.875113 C205.580399,302.5478 209.145377,290.426875 209.145377,290.426875 L182.349101,299.229994 C181.694095,300.153086 180.820438,301.13702 179.776612,302.163733 L169.059813,291.853817 C169.059813,291.853817 162.933755,301.070474 155.434943,309.79754 C154.632585,310.730138 153.53267,314.906391 152.582009,316.570047 C151.987846,315.381721 151.727365,313.938618 151.091373,314.604081 C147.237394,318.629179 143.269336,322.09814 139.748089,323.858764 L146.974061,324.136357 C144.61262,325.45112 143.146701,326.229712 143.146701,326.229712 C143.146701,326.229712 144.09451,326.142251 155.139287,325.126945 C166.184064,324.111639 172.811121,328.707134 172.811121,328.707134 L172.851048,328.407676 C173.681926,328.869697 176.547218,330.675002 178.721379,335.166874 C178.990416,336.223058 180.566612,342.734134 179.239489,344.968187 L181.146515,344.353109 C181.382278,346.779196 181.406045,349.532309 181.117995,352.682799 L189.161536,352.94328 C189.161536,352.94328 189.948683,343.276961 188.015039,335.57851 L190.198707,335.682132 C189.142523,331.913713 185.954957,329.21954 183.905332,327.820167 C183.35585,327.360998 182.757885,326.977882 182.093373,326.715499 C182.093373,326.715499 198.204221,325.425453 197.330564,349.242358 L200.125507,349.342177 L207.214584,349.827965 C207.030156,349.443898 206.869495,349.055078 206.745909,348.654849 C205.530964,346.966476 204.663962,344.042243 204.404431,343.008875 L204.404431,343.008875 Z M178.791728,335.282854 C179.32695,336.41224 179.818441,337.700385 180.221522,339.176761 L178.791728,335.282854 L178.791728,335.282854 Z" id="Shape" fill="#EAF7FE"></path>
                        <path d="M167.625266,335.052795 L169.027491,333.863518 C166.55197,331.931775 162.544935,331.681751 160.442073,331.697913 C159.842206,331.613304 159.222375,331.55056 158.559765,331.525843 C158.559765,331.525843 165.07084,337.777388 164.023212,354.41015 L171.280557,354.66873 C171.280557,354.66968 174.135391,341.536301 167.625266,335.052795 L167.625266,335.052795 Z" id="Shape" fill="#EAF7FE"></path>
                        <g id="Group" transform="translate(197.737447, 200.589429)">
                            <g>
                                <g>
                                    <g id="Shape">
                                        <path d="M214.393024,146.913219 C214.393024,152.02207 210.212969,156.203076 205.103167,156.203076 L10.1844292,156.203076 C5.07557802,156.203076 0.894571815,152.023021 0.894571815,146.913219 L0.894571815,9.44861772 C0.894571815,4.33976656 5.07462736,0.158760354 10.1844292,0.158760354 L205.103167,0.158760354 C210.212018,0.158760354 214.393024,4.3388159 214.393024,9.44861772 L214.393024,146.913219 L214.393024,146.913219 Z" fill="#464745"></path>
                                        <path d="M214.393024,146.913219 C214.393024,152.02207 210.212969,156.203076 205.103167,156.203076 L10.1844292,156.203076 C5.07557802,156.203076 0.894571815,152.023021 0.894571815,146.913219 L0.894571815,9.44861772 C0.894571815,4.33976656 5.07462736,0.158760354 10.1844292,0.158760354 L205.103167,0.158760354 C210.212018,0.158760354 214.393024,4.3388159 214.393024,9.44861772 L214.393024,146.913219 L214.393024,146.913219 Z"></path>
                                    </g>
                                    <rect id="Rectangle-path" fill="#A2A2A1" x="19.5218196" y="13.5811402" width="175.819962" height="129.199556"></rect>
                                </g>
                            </g>
                        </g>
                        <g id="Group" transform="translate(232.911897, 140.697799)">
                            <path d="M112.653305,31.3718065 C115.029957,31.1341413 120.258592,33.7484585 120.258592,33.7484585 C119.070266,30.8964761 110.989649,24.0041853 110.989649,24.0041853 C110.989649,24.0041853 110.986797,24.0365077 110.983945,24.0735835 C106.639425,21.3832134 101.730212,19.237572 96.4996767,17.5197279 L98.5521534,15.2105728 L89.3944379,15.4796098 C80.0494422,13.1799614 70.0370826,12.0363164 60.470583,11.5619367 L62.4270429,8.87251727 C52.0695935,8.59967762 30.9848875,9.64730582 25.2495509,10.8270759 L26.1431721,6.89229082 L21.1522029,9.98193843 C21.1522029,6.89229082 25.1925113,0.950660803 25.1925113,0.950660803 C19.4885465,2.37665201 15.2105728,9.98193843 15.2105728,9.98193843 L14.0222468,14.4975772 L14.4300803,14.4091658 L7.60528642,58.9409698 L24.7171809,58.9409698 L113.921487,59.0997301 C115.107911,50.3527001 113.819766,38.525529 112.58866,31.3651519 C112.610525,31.3642012 112.630489,31.3737078 112.653305,31.3718065 L112.653305,31.3718065 Z M23.931935,12.3433799 C23.9385897,12.3604918 23.9471456,12.3757023 23.9538002,12.3928142 C23.8216584,12.4042222 23.6809606,12.4146794 23.5516707,12.4260874 L23.931935,12.3433799 L23.931935,12.3433799 Z" id="Shape" fill="#EAF7FE"></path>
                            <path d="M63.931939,100.770045 L59.6539654,105.285684 L52.2863441,98.8687235 L41.1160797,106.94934 C41.1160797,106.94934 36.1251105,101.00771 34.4614541,97.6803975 C32.7977977,94.3530847 31.8471369,84.6088114 31.8471369,84.6088114 L29.2328197,86.7477982 C32.3414805,75.0347065 32.2350065,75.2429012 34.2237889,72.0125558 C34.2237889,72.0125558 62.9812782,66.308591 63.931939,100.770045 L63.931939,100.770045 Z" id="Shape" opacity="0.3" fill="#4F4E51"></path>
                            <path d="M66.9769055,87.2231286 C67.1736923,83.6058643 65.3398676,79.9857479 65.761961,76.3855955 C65.9663531,74.6335276 66.2677126,72.5373206 67.5083249,71.1607637 C68.7879144,69.7414271 70.5627981,69.0693099 72.2407144,68.2374817 C72.9774765,67.8714773 73.7170906,67.5102262 74.4548034,67.1499258 C75.761962,65.9853663 77.2364369,64.9805178 78.9048466,64.1696042 C88.2964247,59.607383 114.049826,57.1879512 114.049826,57.1879512 C76.944584,42.8386771 24.0830901,56.5643178 24.0830901,56.5643178 C13.4680116,63.8530341 8.07966616,85.9207233 8.07966616,85.9207233 C16.160283,79.0284325 40.6407493,64.4072694 41.3537449,64.6449346 C39.8716647,74.8008439 25.6364699,74.6458862 64.8036949,103.622027 C65.0565707,98.3296988 66.3247522,92.8576952 67.1546791,87.6205048 C67.0425011,87.5377974 66.9664483,87.4085075 66.9769055,87.2231286 L66.9769055,87.2231286 Z" id="Shape" fill="#EAF7FE"></path>
                            <path d="M25.1478302,41.3128665 C17.9437226,45.2752207 12.3509851,52.1370904 7.65377012,58.9409698 L22.1827192,58.9409698 C22.1827192,58.9409698 27.1908003,54.7124305 34.5612735,49.0274789 C34.5612735,49.0274789 25.1925113,49.5931221 19.9638769,48.800271 C19.9638769,48.800271 39.5218215,43.6828639 47.4094542,39.5075616 C57.2088658,32.5639351 63.6581487,27.9570329 72.4878862,24.3996602 C72.4878862,24.3996602 72.8833611,23.9243298 71.4573699,23.4489994 C71.4573699,23.4489994 73.1210263,23.0525738 74.7057778,23.290239 C74.7057778,23.290239 81.7577797,20.4382566 84.9263321,20.2794962 C84.9263321,20.2804469 65.5955954,18.3791253 25.1478302,41.3128665 L25.1478302,41.3128665 Z" id="Shape" fill="#CDEAF5"></path>
                            <path d="M20.6863791,71.0666483 C14.7552063,70.9487664 8.82023093,71.0523884 2.89000884,70.8793681 C1.88706169,72.8985717 1.2586749,74.954851 1.188326,77.003525 C1.188326,80.8061682 1.42408988,84.8559832 0.47437974,85.9207233 L20.6863791,71.0666483 L20.6863791,71.0666483 Z" id="Shape" opacity="0.3" fill="#4F4E51"></path>
                            <path d="M34.5612735,49.0274789 C34.5612735,49.0274789 9.26894282,63.2189434 8.79361242,77.003525 C8.79361242,80.8061682 9.0293763,84.8559832 8.07966616,85.9207233 L34.4614541,65.8332606 L34.5612735,49.0274789 L34.5612735,49.0274789 Z" id="Shape" fill="#EAF7FE"></path>
                            <path d="M28.2821589,72.0125558 C28.5749624,71.810065 32.3462338,67.4617425 41.8290753,66.7839214 C48.4837009,66.308591 41.8290753,62.0306174 41.8290753,62.0306174 L28.9951545,62.743613" id="Shape" fill="#EAF7FE"></path>
                        </g>
                    </g>
                </g>
            </g>
        </g>
    </g>
</svg>