<?xml version="1.0" encoding="UTF-8" standalone="no"?>
<svg width="99px" height="71px" viewBox="0 0 99 71" version="1.1" xmlns="http://www.w3.org/2000/svg" xmlns:xlink="http://www.w3.org/1999/xlink" xmlns:sketch="http://www.bohemiancoding.com/sketch/ns">
    <!-- Generator: Sketch 3.3.3 (12081) - http://www.bohemiancoding.com/sketch -->
    <title>zf-camp-logo</title>
    <desc>Created with Sketch.</desc>
    <defs></defs>
    <g id="ZFC-V2" stroke="none" stroke-width="1" fill="none" fill-rule="evenodd" sketch:type="MSPage">
        <g sketch:type="MSArtboardGroup" transform="translate(-50.000000, -35.000000)" id="Hero">
            <g sketch:type="MSLayerGroup">
                <g id="zf-camp-logo" transform="translate(50.000000, 36.000000)">
                    <g id="ZURB-Foundation-Camp-+-thin-0780_camping_tent-+-Shape-copy-3" transform="translate(0.000000, 40.000000)" font-weight="526" font-family="Lato" fill="#FFFFFF" font-size="12.5" sketch:alignment="middle" sketch:type="MSTextLayer">
                        <text id="ZURB-Foundation-Camp">
                            <tspan x="0.2" y="12">ZURB Foundation</tspan>
                            <tspan x="33.9875" y="27">Camp</tspan>
                        </text>
                    </g>
                    <g id="thin-0785_mountains_nature-+-thin-0780_camping_tent-+-Shape-copy-3-+-Tent" transform="translate(22.000000, 0.000000)" sketch:type="MSShapeGroup">
                        <g id="thin-0785_mountains_nature-+-thin-0780_camping_tent-+-Shape-copy-3" fill="#F7F9FA">
                            <g id="thin-0780_camping_tent-+-Shape-copy-2" transform="translate(0.166667, 0.500000)">
                                <path d="M20.0888933,6.30832862 C20.0888933,6.30832862 20.2332402,7.65265572 19.2794004,8.83060849 C18.734925,9.50275163 17.8716758,9.85703161 17.2307136,10.0373542 L17.2307136,11.994913 C17.2307136,11.994913 17.48397,11.5098736 18.0164579,11.5098736 C18.0164579,11.5098736 17.2307136,12.4801401 17.2307136,13.7200608 L17.2307136,15.5528073 C17.2307136,15.5528073 18.3227776,16.4693684 18.7487679,17.0353415 C19.1747582,17.6013147 19.8139291,18.0595013 20.1068902,18.1943284 C20.1068902,18.1943284 19.8673635,18.3830487 19.4411876,18.3830487 C19.4411876,18.3830487 19.8404608,19.6498221 20.1068902,20.8897427 C20.3731342,22.1296634 20.7460612,22.2913431 21.0922711,22.2913431 C21.0922711,22.2913431 21.0390223,22.6148905 20.692998,22.5876622 C20.692998,22.5876622 20.7195296,22.8573163 20.9592419,22.9651028 C20.9592419,22.9651028 20.8260272,23.0997421 20.613032,22.9919556 C20.613032,22.9919556 21.0392078,25.3908631 20.9592419,26.7924635 C20.9592419,26.7924635 20.8260272,26.6844892 20.6662808,26.6576364 C20.6662808,26.6576364 20.7460612,27.5741975 20.0536415,28.4905708 C20.0536415,28.4905708 20.053827,28.2479572 19.9206123,28.1401707 C19.9206123,28.1401707 19.6972271,28.9677233 18.1034742,29.0261233 C18.1361285,29.2373774 18.1721225,29.4476926 18.2274122,29.6546277 C18.234277,29.6805415 18.2682301,29.6978174 18.2916076,29.6811049 C18.353391,29.637164 18.4168443,29.5999833 18.4821529,29.5652438 C18.6580409,29.506656 18.7656516,29.5823319 18.7656516,29.5823319 C18.5905058,29.6266483 18.3815924,29.9706638 18.3340953,30.1071809 C18.4738038,30.0968529 18.5791881,30.1308414 18.7172268,30.2168452 C18.5851253,30.2343089 18.4407784,30.3032247 18.4407784,30.3032247 C19.2317177,30.6434846 19.3539858,31.1369741 19.6057579,31.4821164 C19.5278329,31.4376122 19.2725356,31.3258822 19.2725356,31.3258822 C19.5068673,31.5474643 19.632104,32.0845191 19.6504721,32.2614092 C19.6742207,32.4899392 19.6729219,32.4861836 19.6877648,32.6685193 C19.5899874,32.6339675 19.5157731,32.6142505 19.4471248,32.5986646 C19.3519449,32.5778209 19.2868218,32.5658029 19.2064848,32.5462736 C19.0038797,32.5164164 18.5211154,32.4491906 18.187522,32.4330414 C18.1919748,32.5960357 18.193088,32.7817515 18.1899339,32.9939445 C18.0223951,32.9755419 17.8557839,32.9475625 17.6895438,32.9175175 C17.6591159,32.9154519 17.6285025,32.9131985 17.5973324,32.9098184 C17.2873021,32.8439071 16.9781993,32.7840049 16.6635306,32.7689824 C16.2635153,32.7496409 15.860717,32.7590299 15.4631137,32.8101065 C15.3931666,32.6850441 15.3885283,32.6784717 15.37183,32.5404524 C15.3508645,32.4585797 15.3397323,32.4568897 15.3286002,32.4551996 C15.2816596,32.4476884 15.2701564,32.4467495 15.2586532,32.4458106 C15.1039163,32.4319147 14.8918488,32.4206479 14.7597473,32.4133244 C14.3959115,32.412761 14.1075888,32.4486273 14.0278084,32.4595186 C14.0244687,32.3361462 14.0142643,32.2125861 14.0120378,32.0888381 C14.0094403,31.9427442 14.017975,31.8049126 13.9415342,31.6961872 C13.8522915,30.7689226 13.2838097,29.2980308 13.1081072,28.8603124 C10.8879853,29.7481429 8.49550066,28.8948641 8.49550066,28.8948641 L8.30235785,29.0159831 C7.52347838,31.2194102 7.48841211,31.9754181 7.45353137,32.4627109 C7.45353137,32.4627109 6.88857473,32.4125733 6.45905926,32.4133244 C6.32695774,32.4204601 6.11470474,32.431727 5.98260322,32.443745 C5.921933,32.4491906 5.9193355,32.4506929 5.91618139,32.4516318 C5.8505017,32.4905025 5.8505017,32.515853 5.84697652,32.5404524 C5.83027829,32.6786595 5.8256399,32.6852319 5.79020255,32.7920795 C5.66589354,32.8636242 5.5326788,32.8839046 5.39055835,32.9009927 C4.66047481,32.9623972 4.22186808,32.8547985 3.5919739,32.911884 C3.5552378,32.9026827 3.51757402,32.8968615 3.4786115,32.8936692 C3.35133391,32.8480383 3.28212904,32.7828782 3.28212904,32.7828782 L3.27507868,32.406752 C2.85521107,32.4381115 2.05833463,32.5032717 1.77075407,32.6011058 C1.8050782,32.4991405 1.90823613,32.3917295 1.93050043,32.2910787 C1.99859209,31.9836805 1.95220813,31.9836805 2.05035659,31.6845447 C2.184499,31.276308 2.38561985,30.8184969 2.64963736,30.4851849 C2.73646813,30.3755205 3.05225013,30.3469778 3.0624546,30.188678 C3.07284461,30.1888658 3.15169734,30.0972285 3.15169734,30.0972285 C3.66785806,30.0730047 3.9129509,29.6133158 4.03707438,29.0710031 L3.03592298,29.110625 C2.50343511,29.110625 1.59783467,28.6524383 1.198376,28.1133179 C0.798917335,27.5741975 0.50595624,26.8733973 0.50595624,26.8733973 C0.292775558,26.9543311 0.0265316254,27.2237974 0.0265316254,27.2237974 C0.106497573,26.3881701 0.452707454,24.9326764 0.452707454,24.9326764 L0,24.6093168 L0.585922188,24.2589167 C0.612453814,23.0728894 1.14512722,21.940943 1.14512722,21.940943 C0.958663694,21.8331565 0.532673402,22.0487296 0.532673402,22.0487296 C0.825634496,20.2696885 1.70451778,19.1916354 1.70451778,19.1916354 C1.30505911,19.0838489 0.745854084,19.434249 0.745854084,19.434249 C1.38502506,18.3830487 2.63664985,17.0892348 2.63664985,17.0892348 C2.5566839,16.8736617 2.13050807,16.6310482 2.13050807,16.6310482 C2.396752,16.5501144 2.90289378,16.5232616 2.90289378,16.5232616 C3.2223865,16.1189683 3.80830869,15.7146749 3.80830869,15.7146749 C3.7550599,14.9329409 3.24910366,14.4747543 3.24910366,14.4747543 C3.56878192,14.3940083 3.75524544,14.5556881 3.75524544,14.5556881 C3.75524544,13.3428079 3.27582082,12.8036875 3.27582082,12.8036875 C3.72852828,12.8575808 3.94152342,13.1270471 3.94152342,13.1270471 C3.94152342,13.1270471 3.78840639,11.6091645 3.70742114,10.0313758 C3.06872377,9.849245 2.21836266,9.49540128 1.67984151,8.83060849 C0.726001749,7.65265572 0.870348634,6.30832862 0.870348634,6.30832862 C0.870348634,6.30832862 2.00575916,7.51983317 3.66757567,7.81904509 C3.6778359,7.53261134 3.69731034,7.27940295 3.72852828,7.07579123 C3.96824058,5.51269879 5.29983132,3.25519071 5.29983132,3.25519071 C5.29983132,3.25519071 5.32636295,4.4177454 5.53935809,4.9298253 C5.53935809,4.9298253 6.39133868,1.88551312 9.61372518,0.510953211 C9.61372518,0.510953211 9.32057855,1.45511813 9.45360774,2.53335897 C9.45360774,2.53335897 11.3438469,0 14.672731,0 C14.672731,0 14.0057296,0.566348726 14.0057296,2.264456 C14.0057296,2.264456 14.9087326,1.94090863 16.000611,2.18352221 C16.000611,2.18352221 15.0634695,2.85765747 15.3031818,4.01664431 C15.3031818,4.01664431 16.4917244,2.74987094 18.6222324,3.3158441 C18.6222324,3.3158441 18.0429895,3.88200505 17.856526,5.79568537 C17.856526,5.79568537 18.12277,5.60715284 18.5222286,5.63400558 C18.5222286,5.63400558 17.7640953,6.31423324 17.4095411,7.79613386 C19.0069411,7.4627921 20.0888933,6.30832862 20.0888933,6.30832862 Z" id="Shape-copy-2"></path>
                            </g>
                        </g>
                        <g id="Tent" transform="translate(28.000000, 0.000000)" stroke="#F7F9FA" stroke-width="1.28301887" stroke-linejoin="round">
                            <path d="M18.1022727,34 L27,34 L13.5,5.77358491 L0,34 L8.89772727,34 L13.5,24.3773585 L18.1022727,34 Z" id="Triangle-33" stroke-linecap="round"></path>
                            <path d="M13.5,5.77358491 L13.5,0" id="Line" stroke-linecap="round"></path>
                            <path d="M13.4904262,5.79723417 L16.7333156,3.20194804" id="Path-2013" stroke-linecap="round"></path>
                            <path d="M10.2913252,5.79692093 L13.497842,3.19901144" id="Path-2013" stroke-linecap="round" transform="translate(11.894584, 4.497966) scale(-1, 1) translate(-11.894584, -4.497966) "></path>
                            <path d="M13.5,34 L13.5,31.3549888" id="Line" stroke-linecap="square"></path>
                        </g>
                    </g>
                </g>
            </g>
        </g>
    </g>
</svg>